<svg id="Layer_1" data-name="Layer 1" xmlns="http://www.w3.org/2000/svg" viewBox="0 0 255.59 53.67"><defs><style>.cls-1{fill:none;stroke:#0067b1;stroke-width:1.98px;}.cls-2{fill:#0067b1;stroke:#dbd8bd;stroke-width:0.25px;}.cls-3{fill:#fff;}</style></defs><title>logo</title><path class="cls-1" d="M342.13,287.18a25.84,25.84,0,1,1-25.84-25.84A25.84,25.84,0,0,1,342.13,287.18Z" transform="translate(-181.31 -260.35)"/><path class="cls-2" d="M318.92,284.71s4.75-11,.82-17.64c-2.11-3.58-6.07-6.2-10.28-5.95C309.46,261.12,321.86,269.23,318.92,284.71Z" transform="translate(-181.31 -260.35)"/><path class="cls-2" d="M317.48,283.83s-1.37-11.88-8.11-15.69c-3.62-2-8.36-2.34-11.88,0C297.5,268.13,312.29,269,317.48,283.83Z" transform="translate(-181.31 -260.35)"/><path class="cls-2" d="M315.76,283.69s-7.13-9.6-14.86-9.53c-4.16,0-8.41,2.15-10.29,5.93C290.61,280.09,303.83,273.41,315.76,283.69Z" transform="translate(-181.31 -260.35)"/><path class="cls-2" d="M314.15,284.35s-11-4.75-17.64-.82c-3.58,2.11-6.21,6.07-5.95,10.28C290.56,293.81,298.68,281.41,314.15,284.35Z" transform="translate(-181.31 -260.35)"/><path class="cls-2" d="M313,285.81s-11.88,1.37-15.69,8.11c-2,3.62-2.34,8.36,0,11.88C297.34,305.79,298.17,291,313,285.81Z" transform="translate(-181.31 -260.35)"/><path class="cls-2" d="M312.91,287.58s-9.6,7.13-9.53,14.86c0,4.16,2.15,8.41,5.93,10.29C309.3,312.73,302.62,299.51,312.91,287.58Z" transform="translate(-181.31 -260.35)"/><path class="cls-2" d="M313.64,289.27s-4.75,11-.82,17.64c2.11,3.58,6.07,6.21,10.28,5.95C323.09,312.86,310.7,304.75,313.64,289.27Z" transform="translate(-181.31 -260.35)"/><path class="cls-2" d="M315.1,290.29s1.37,11.88,8.11,15.69c3.62,2,8.36,2.34,11.88,0C335.09,306,320.29,305.17,315.1,290.29Z" transform="translate(-181.31 -260.35)"/><path class="cls-2" d="M316.91,290.43S324,300,331.78,300a12,12,0,0,0,9.39-4.47l-0.08-1A23.44,23.44,0,0,1,316.91,290.43Z" transform="translate(-181.31 -260.35)"/><path class="cls-2" d="M318.53,289.69s11,4.75,17.64.82a12.74,12.74,0,0,0,4.29-4.14l-0.29-3.76A23.18,23.18,0,0,1,318.53,289.69Z" transform="translate(-181.31 -260.35)"/><path class="cls-2" d="M319.39,288.48s11.88-1.37,15.69-8.11c2-3.62,2.34-8.36,0-11.88C335.09,268.49,334.26,283.28,319.39,288.48Z" transform="translate(-181.31 -260.35)"/><path class="cls-2" d="M319.74,286.37s9.6-7.13,9.53-14.86c0-4.16-2.15-8.41-5.93-10.29C323.34,261.22,330,274.44,319.74,286.37Z" transform="translate(-181.31 -260.35)"/><path class="cls-3" d="M421,293.91s-1.55,4.21-7.54,4.21-6.21-4.21-5.76-5.54L412,278.35s1.55-4.21,7.54-4.21,6.21,4.21,5.76,5.54l-0.64,2.11h11.45l0.46-1.65s3.46-13-12-13.75c-12.05-.55-21.09,2-24.61,12.41l-4.08,14.44s-3.28,13.56,12,13.84c6.71-.16,18.74.69,24.61-12.51l0.35-1.23h-11.7Z" transform="translate(-181.31 -260.35)"/><path class="cls-3" d="M247.86,293.91s-1.55,4.21-7.54,4.21-6.21-4.21-5.76-5.54l7.94-26.15H231l-8.23,26.82s-3.15,14,15.94,14c5.23,0,16.53,0,20.64-12.62l8.27-28.15H255.59Z" transform="translate(-181.31 -260.35)"/><path class="cls-3" d="M273.33,266.49a10.15,10.15,0,0,0-8.68,9.54h10.68l-9,31.07h12l8.32-31.51h13.93l2.48-9.09H273.33Z" transform="translate(-181.31 -260.35)"/><path class="cls-3" d="M394.59,266.64c-12.56-1.33-17.15,8-17.15,8l-22.11,32.46h11.81l3-4.53h15.16l0.26,4.53h12.2ZM375.48,295l9.14-14.61L385.41,295h-9.93Z" transform="translate(-181.31 -260.35)"/><path class="cls-3" d="M220.56,266.64c-12.56-1.33-17.15,8-17.15,8l-22.11,32.46h11.81l3-4.53h15.16l0.26,4.53h12.2ZM201.46,295l9.14-14.61L211.39,295h-9.93Z" transform="translate(-181.31 -260.35)"/><circle class="cls-1" cx="135.23" cy="26.47" r="4.47"/><path class="cls-3" d="M359.3,299l22.17-32.58H369.67l-18.31,28.44L351,266.43H338.88L342,307.09h4.67A16.49,16.49,0,0,0,359.3,299Z" transform="translate(-181.31 -260.35)"/></svg>