<svg width="1250" height="417" version="1.1" xmlns="http://www.w3.org/2000/svg" desc="Created with imagetracer.js version 1.2.6" ><path fill="rgb(231,232,234)" stroke="rgb(231,232,234)" stroke-width="1" opacity="1" d="M 219 54 L 224 54 L 224 56.5 Q 221.7 59.7 215.5 59 L 212.5 62 L 207.5 63 L 200.5 68 L 154 113.5 L 155.5 117 Q 162.2 114.7 172.5 116 Q 174.2 118.8 180.5 117 L 196.5 122 L 201.5 122 L 222.5 101 L 229.5 96 L 237.5 95 L 241.5 93 L 250.5 93 L 254.5 95 L 261.5 96 L 275 107.5 L 279 113.5 Q 279.3 120.7 283 124.5 L 283 134.5 Q 279.3 138.8 279 146.5 L 274 153.5 L 218.5 209 L 207.5 217 L 191.5 220 L 176.5 216 L 163 204.5 L 156.5 194 L 152.5 195 L 133 214.5 Q 133.8 216.8 131.5 216 Q 127.3 217.8 129 225.5 L 139.5 238 L 147.5 245 L 163.5 254 L 166.5 254 L 175.5 258 L 197.5 259 L 198.5 258 L 210.5 258 L 216.5 254 L 221.5 254 L 237.5 245 L 303 180.5 L 312 168.5 L 317 158.5 L 321 144.5 L 320 143.5 L 320 109.5 L 312 90.5 L 299.5 75 L 292 70 Q 293.1 67.3 290.5 68 L 276.5 59 L 272.5 59 L 267 57 L 267 54 L 272 54 L 273.5 57 L 277.5 57 L 280.5 60 L 285.5 61 L 293 66.5 L 294.5 69 Q 301.4 70.6 304 76.5 L 307.5 82 Q 309.8 81.3 309 83.5 L 311.5 87 Q 313.8 86.3 313 88.5 L 314 92.5 L 318 96.5 L 319 103.5 L 322 106.5 L 323 110.5 L 323 148.5 L 322 152.5 L 319 155.5 L 318 162.5 L 315 165.5 L 312.5 172 L 310 173.5 L 305 181.5 L 243.5 243 L 231.5 252 Q 224.8 251.3 223.5 256 L 218.5 256 L 212.5 260 L 185.5 261 L 184.5 260 L 172.5 260 Q 169.3 255.7 161.5 256 L 141 243 L 138.5 239 L 136 237.5 L 134.5 235 L 132 233.5 L 131 230 L 128 228.5 Q 124.8 225.2 126 217.5 L 153.5 191 L 158.5 191 Q 162.8 203.7 172.5 211 L 174.5 211 L 178.5 215 L 198.5 216 Q 200.3 213.2 206.5 215 L 220 204.5 Q 219.3 202.3 221.5 203 L 224 199 L 232 192.5 L 233.5 190 L 237 187.5 Q 236.3 185.3 238.5 186 L 241 182 L 245 179.5 Q 244.3 177.3 246.5 178 L 249 174 L 253 171.5 L 254.5 169 L 258 166.5 Q 257.3 164.3 259.5 165 L 262 161 L 266 158.5 Q 265.3 156.3 267.5 157 L 270 153 L 273 151.5 L 278 141.5 L 280 126.5 L 278 123.5 L 277 114.5 L 266.5 102 L 260.5 98 L 249.5 96 L 241.5 96 L 235.5 98 L 230.5 98 L 219 106 L 205 123 L 197.5 125 L 194.5 123 L 184.5 122 L 178.5 119 L 155.5 119 L 152.5 120 Q 149.3 119.3 150 114.5 L 157.5 106 L 161 103.5 L 165.5 98 L 169 95.5 L 170.5 93 Q 172.8 93.8 172 91.5 L 183 81.5 L 184.5 79 L 188 76.5 Q 187.3 74.3 189.5 75 L 205.5 61 L 209.5 61 L 213.5 57 Q 218 58 219 55.5 L 219 54 Z " /><path fill="rgb(231,232,234)" stroke="rgb(231,232,234)" stroke-width="1" opacity="1" d="M 161.5 131 L 185.5 132 L 191.5 136 L 196.5 136 Q 198.5 140 204.5 140 L 218 150.5 L 219.5 153 L 223 155.5 Q 222.3 157.8 224.5 157 L 233 167.5 L 233 174.5 L 205.5 201 L 202.5 202 L 199 201 Q 195.8 188 185.5 181 L 183.5 181 L 178.5 177 L 160.5 176 Q 158.8 178.8 152.5 177 L 141.5 185 L 85 241.5 L 82.5 247 Q 79.5 246.5 81 253.5 Q 78.1 258.1 79 266.5 Q 81.9 270.1 81 277.5 L 82.5 279 Q 84.8 278.3 84 280.5 Q 85.6 287.4 91.5 290 L 97.5 294 L 102.5 294 L 109.5 297 L 115.5 297 L 118.5 295 L 128.5 294 L 136 288.5 L 137.5 286 L 145 279.5 Q 144.3 277.3 146.5 278 L 149 274 L 153 271.5 L 154.5 269 L 162.5 268 L 172.5 270 L 178.5 273 L 208 273 L 208 279.5 L 202.5 285 L 197 289.5 L 195.5 292 L 158.5 327 L 156.5 327 L 145.5 335 L 140 336 Q 141.3 339.3 136.5 338 Q 133 336 137.5 334 L 143.5 333 L 151.5 329 L 162.5 321 L 205 278.5 Q 206.1 275.2 203.5 276 L 199.5 275 L 198.5 276 L 189.5 276 L 186.5 275 L 181.5 276 L 165.5 271 L 156.5 271 L 135.5 292 L 129.5 296 Q 120.9 296.4 115.5 300 L 109.5 300 Q 104.8 296.2 96.5 296 L 84 285.5 L 79 277.5 L 76 266.5 L 76 258.5 Q 79 254.5 79 247.5 L 84 239.5 L 143.5 180 L 152.5 175 Q 158.6 175.6 161.5 173 L 170.5 173 Q 187.9 176.1 196 188.5 L 202.5 199 L 206.5 197 L 230 173.5 L 230 167.5 L 215.5 151 L 204.5 143 L 194.5 138 Q 186.5 138 182.5 134 L 164.5 133 L 163.5 134 L 149.5 134 Q 145.5 138 137.5 138 L 121 147 Q 122.1 149.7 119.5 149 L 58 209.5 L 47 223.5 Q 46.3 229.8 42 232.5 Q 42.6 239.1 39.5 242 L 37 241 L 37 235.5 L 40 235 L 40 230.5 L 44 226.5 Q 43.4 221.4 46.5 220 Q 48.8 220.8 48 218.5 L 53 211.5 L 85.5 178 L 103 161.5 Q 102.3 159.3 104.5 160 L 115.5 149 L 127.5 140 Q 134.2 140.7 135.5 136 L 140.5 136 L 146.5 132 L 160.5 132 L 161.5 131 Z " /><path fill="rgb(231,232,234)" stroke="rgb(231,232,234)" stroke-width="1" opacity="1" d="M 360.5 169 L 389.5 169 Q 392.4 173.6 399.5 174 L 409 181.5 L 410 188.5 L 408 192 Q 405.3 190.9 406 193.5 L 400.5 196 L 394 192.5 L 392.5 190 Q 386.3 189.2 383.5 185 L 365.5 185 L 363 186 L 361.5 189 L 356 190 L 354.5 193 L 352 194.5 L 350 200 Q 346.7 198.7 348 203.5 L 345 211.5 L 345 220.5 Q 349 224.4 348 232 L 351 233.5 L 352 237 L 355 238.5 Q 354.3 240.8 356.5 240 L 360.5 244 Q 367.5 244 371.5 247 L 378.5 247 Q 382.8 243.8 390.5 244 L 395 239.5 Q 393.5 232 396 228.5 L 394.5 227 L 375.5 227 L 372 223.5 L 371 214.5 L 372 212 L 376.5 210 L 407.5 210 L 413 212.5 L 414 214.5 L 414 245.5 L 408.5 252 L 405 253.5 L 403.5 256 L 387.5 264 L 375.5 264 L 374.5 265 L 373.5 264 L 362.5 264 L 347.5 256 L 341 251 L 333 239.5 L 331 232.5 L 328 228.5 L 327 223.5 L 327 207.5 L 333.5 191 L 336 189.5 L 337 186.5 L 345.5 178 L 360.5 169 Z M 364 171 L 348 179 L 334 195 Q 334 203 330 207 L 330 226 Q 334 228 333 235 L 339 245 L 348 253 L 367 262 L 384 262 L 395 258 L 408 250 L 411 245 L 411 216 L 409 213 Q 402 215 401 212 L 380 212 L 377 213 L 374 218 L 375 223 L 379 225 L 396 225 L 398 226 L 399 229 Q 397 232 398 240 L 392 246 L 376 250 Q 374 247 368 249 L 360 246 L 354 241 L 347 234 L 342 219 L 343 209 L 349 196 Q 355 187 366 183 L 384 183 L 401 193 L 408 188 L 407 184 L 399 176 L 394 175 L 388 171 L 380 171 L 379 172 L 364 171 Z " /><path fill="rgb(231,232,234)" stroke="rgb(231,232,234)" stroke-width="1" opacity="1" d="M 431.5 169 L 489.5 169 L 493 171.5 L 493 183.5 L 491.5 185 L 445.5 185 L 444 186.5 L 445 201.5 L 444 205.5 L 445.5 207 L 487.5 207 L 490 209.5 L 491 217.5 L 487.5 223 L 485.5 224 L 445.5 224 L 444 225.5 L 445 239.5 L 444 243.5 L 445.5 245 L 489.5 245 L 493 247.5 L 494 256.5 L 493 260.5 L 490.5 263 L 486.5 264 L 434.5 264 L 428 260.5 L 427 257.5 L 427 174.5 L 429.5 170 L 431.5 169 Z M 435 171 L 432 172 L 430 174 L 430 258 L 436 261 L 441 260 L 443 261 L 445 260 L 447 261 L 480 261 L 482 261 L 489 260 Q 493 258 491 251 L 489 248 L 485 247 L 475 247 L 474 248 L 466 248 L 465 247 Q 459 246 458 248 Q 448 249 443 247 L 442 245 L 442 225 L 443 222 L 447 221 L 487 221 Q 489 218 488 212 L 486 209 L 445 209 L 442 207 L 442 186 L 446 183 L 490 183 Q 493 181 491 175 L 487 171 L 435 171 Z " /><path fill="rgb(231,232,234)" stroke="rgb(231,232,234)" stroke-width="1" opacity="1" d="M 501.5 169 L 569.5 169 L 572 171.5 Q 574.3 174.7 573 181.5 L 570.5 185 L 544.5 185 L 543 186.5 L 544 190.5 L 544 256.5 L 543 260.5 L 540.5 263 L 533.5 264 L 528 260.5 L 527 258.5 L 527 189.5 L 528 187.5 L 527 185 L 500.5 185 L 498 182.5 Q 497.1 174.2 499 170 L 501.5 169 Z M 505 171 L 503 172 Q 499 174 500 181 L 503 183 L 528 183 L 530 187 L 530 245 L 529 246 L 530 259 L 536 261 L 540 260 L 541 259 L 541 186 L 544 183 L 569 183 L 571 180 L 570 174 L 567 171 L 505 171 Z " /><path fill="rgb(231,232,234)" stroke="rgb(231,232,234)" stroke-width="1" opacity="1" d="M 608.5 169 L 651.5 169 L 657.5 173 L 662.5 173 L 676 183.5 Q 680.2 186.3 681 192.5 L 685 196.5 L 685 202.5 L 688 211.5 L 688 219.5 L 684 236.5 L 671.5 252 L 659.5 260 L 651.5 261 L 646.5 264 L 610.5 264 L 606 260.5 L 605 256.5 L 605 176.5 L 606 171.5 L 608.5 169 Z M 610 171 L 607 176 L 607 257 L 611 261 L 648 261 Q 650 258 657 259 L 670 251 Q 681 242 685 225 L 684 201 L 675 186 L 672 183 L 670 180 L 662 175 Q 654 175 650 171 L 610 171 Z " /><path fill="rgb(231,232,234)" stroke="rgb(231,232,234)" stroke-width="1" opacity="1" d="M 689.5 169 L 702.5 169 L 705 170 L 720.5 195 Q 722.8 194.3 722 196.5 L 727.5 206 Q 730.8 207.1 730 204.5 L 735 197.5 L 737.5 191 L 740 189.5 L 744 183.5 L 744 180.5 L 752.5 170 L 754.5 169 L 766.5 169 Q 770.5 170.5 769 177.5 L 766.5 181 L 764 182.5 L 763 186.5 L 757.5 194 Q 754.5 193.1 756 197.5 Q 749.1 204.1 745.5 214 Q 743.3 213.3 744 215.5 L 738 225.5 L 738 256.5 L 732.5 264 Q 722.1 265.4 719 259.5 L 719 224.5 L 715 220.5 L 709.5 210 L 707 208.5 L 702 197 L 699 195.5 L 697 189 Q 694.3 190.1 695 187.5 Q 688.3 182.2 687 171.5 L 689.5 169 Z M 696 170 L 690 173 Q 689 178 692 181 L 709 207 Q 708 209 711 208 Q 713 217 720 223 L 721 227 L 721 258 L 725 261 L 729 262 L 734 260 L 735 258 L 735 227 L 755 194 L 767 178 L 767 173 L 766 171 Q 761 172 760 170 L 755 171 L 746 182 L 732 206 L 728 209 L 704 173 L 703 171 L 696 170 Z " /><path fill="rgb(231,232,234)" stroke="rgb(231,232,234)" stroke-width="1" opacity="1" d="M 779.5 169 Q 788.5 167.5 790 173.5 L 810 198 L 814 200.5 L 815.5 203 L 818 204.5 L 819.5 207 Q 821.8 206.3 821 208.5 L 834.5 224 L 836 223.5 L 836 174.5 L 838 170 Q 841.6 167.7 850.5 169 L 853 170 L 855 174.5 L 855 260.5 L 854 263 Q 851.9 264.6 846.5 264 L 844 260 L 840 257.5 L 821.5 235 Q 819.3 235.8 820 233.5 L 816 231 L 811 223 L 807 220.5 L 805.5 218 L 803 216.5 L 794.5 206 L 794 258.5 L 791.5 263 L 781.5 264 L 778 261.5 L 777 259.5 L 777 171.5 L 779.5 169 Z M 846 170 L 842 171 L 838 177 L 838 220 L 839 221 L 839 228 L 836 228 L 809 198 L 806 196 L 789 176 L 785 171 L 781 171 L 779 173 L 779 259 Q 781 263 790 261 L 792 258 L 792 205 L 795 203 L 813 224 Q 812 226 815 225 L 842 257 L 848 262 L 850 262 L 853 258 L 853 177 L 852 174 Q 850 170 846 170 Z " /><path fill="rgb(231,232,234)" stroke="rgb(231,232,234)" stroke-width="1" opacity="1" d="M 904.5 169 Q 912.3 167.3 914 171.5 Q 913.3 178.2 918 179.5 L 919 186 L 922 187.5 L 923 193.5 L 926 196.5 L 927 202.5 L 928.5 204 Q 931.1 203.2 930 206.5 L 944 234.5 L 944 237.5 L 952 251.5 L 953 259.5 L 949.5 264 Q 939.4 265.6 936 260.5 L 935 256 L 932 254.5 L 931 248.5 L 925.5 241 Q 920.8 239.8 919.5 242 L 895.5 242 L 890.5 241 L 886 246.5 L 885 251.5 L 878.5 262 Q 874.8 265.3 866.5 264 L 863 261.5 L 862 254.5 L 865 251.5 L 865 248.5 Q 869.6 245.6 870 238.5 L 873 235.5 L 873 231.5 L 877 226.5 L 878 221.5 L 881 218.5 Q 880.5 213 883.5 211 Q 886.1 211.8 885 208.5 Q 885.8 202.3 890 199.5 L 890 196.5 L 894 191.5 L 894 187.5 L 898 183.5 L 898 179.5 L 904.5 169 Z M 906 171 L 895 191 L 895 194 L 891 199 L 891 202 L 874 235 L 874 238 L 866 252 L 865 259 L 870 262 L 876 261 L 880 257 L 888 240 L 891 239 L 927 239 L 932 247 L 933 252 L 938 260 L 945 262 Q 949 262 951 259 L 951 254 L 942 238 L 942 235 L 930 213 L 929 208 L 921 194 L 921 191 L 912 173 Q 911 170 906 171 Z " /><path fill="rgb(231,232,234)" stroke="rgb(231,232,234)" stroke-width="1" opacity="1" d="M 970.5 169 Q 977.3 168.1 980 170 L 982 178 L 985 179.5 L 994 199 L 997 200.5 L 998 205.5 L 1002 209.5 L 1002 212.5 L 1005 215.5 L 1010 226.5 L 1014 230.5 L 1014 234 Q 1016.7 235.1 1016 232.5 L 1025.5 215 Q 1027.8 215.8 1027 213.5 L 1028 209.5 L 1039 192.5 L 1041 186 L 1044 184.5 Q 1043.4 179.4 1046.5 178 Q 1049.1 178.8 1048 175.5 L 1050.5 170 L 1058.5 169 L 1061 172.5 Q 1060.1 179.9 1064 182.5 L 1065 208.5 L 1069 223.5 L 1069 240.5 Q 1073.5 247 1072 259.5 Q 1069.6 265.6 1059.5 264 L 1053 258.5 L 1052 254.5 L 1052 235.5 L 1048 224.5 L 1047.5 212 L 1039 229.5 L 1036 232.5 L 1034 239 L 1031 240.5 Q 1031.6 245.6 1028.5 247 Q 1025.9 246.2 1027 249.5 L 1022 259.5 L 1017.5 264 L 1012.5 264 L 1007 258.5 L 1006 253.5 L 995 236.5 L 994 231 L 990 228.5 L 990 224.5 L 986 220.5 Q 985.9 214.1 981.5 212 L 981 230.5 L 977 241.5 L 977 258.5 L 972.5 263 L 963.5 264 L 958 259.5 Q 957 252.5 960 249.5 L 961 223.5 L 965 210.5 L 965 192.5 L 969 177.5 L 969 170.5 L 970.5 169 Z M 971 171 L 970 174 L 969 190 L 966 201 L 966 215 L 963 227 L 962 250 L 960 258 L 967 262 L 973 260 L 975 258 L 976 237 L 978 233 L 979 219 L 980 218 L 980 209 L 982 208 L 1003 245 L 1004 249 L 1007 252 L 1009 258 L 1014 262 L 1017 262 L 1021 258 L 1022 254 L 1035 231 L 1038 228 L 1046 211 L 1049 209 L 1050 211 L 1050 223 L 1053 231 L 1054 253 L 1056 259 L 1062 262 Q 1068 262 1070 258 L 1070 252 L 1067 239 L 1067 225 L 1063 209 L 1062 186 L 1059 177 L 1059 173 Q 1058 170 1054 171 L 1050 175 L 1049 179 L 1037 198 L 1036 202 L 1023 225 L 1015 237 L 988 192 L 983 181 L 980 178 L 979 174 Q 977 170 971 171 Z " /><path fill="rgb(231,232,234)" stroke="rgb(231,232,234)" stroke-width="1" opacity="1" d="M 1089.5 169 L 1100.5 169 L 1102 170.5 L 1104 175.5 L 1104 257.5 L 1100.5 263 L 1091.5 264 L 1087 262 L 1085 253.5 L 1086 252.5 L 1086 181.5 L 1085 177.5 Q 1087.3 176.3 1086 171.5 L 1087.5 170 L 1089.5 169 Z M 1096 170 L 1091 171 L 1087 176 L 1087 257 L 1088 259 L 1095 262 L 1099 261 L 1102 256 L 1102 177 L 1100 171 L 1096 170 Z " /><path fill="rgb(231,232,234)" stroke="rgb(231,232,234)" stroke-width="1" opacity="1" d="M 1147.5 169 L 1177.5 169 L 1182.5 173 L 1186.5 173 Q 1189.8 178 1196 179 Q 1197.3 182 1193.5 181 L 1177.5 171 L 1172.5 170 L 1152.5 170 L 1139.5 175 L 1125 188.5 L 1121 194.5 L 1119 203.5 L 1117 205.5 L 1116 219.5 L 1121 236.5 Q 1126.1 247.4 1135.5 254 L 1151.5 262 Q 1158.6 264.4 1169.5 263 L 1178.5 260 L 1196 250 Q 1197.1 252.7 1194.5 252 L 1190.5 256 L 1174.5 264 Q 1166.2 266.7 1153.5 265 L 1134.5 256 L 1124 245.5 Q 1123.4 239.5 1119 237.5 L 1118 230 Q 1115.3 231.1 1116 228.5 L 1115 227.5 L 1115 204.5 Q 1120 202 1119 193.5 L 1132.5 178 L 1137 175.5 Q 1136.3 173.3 1138.5 174 Q 1144.7 173.2 1147.5 169 Z " /><path fill="rgb(231,232,234)" stroke="rgb(231,232,234)" stroke-width="1" opacity="1" d="M 622.5 184 L 644.5 184 L 648.5 185 Q 650.4 188.6 656.5 188 L 665 195.5 L 670 203.5 L 671 221.5 Q 668.7 222.8 670 227.5 L 666 235.5 L 660.5 241 L 651.5 246 L 623.5 247 L 621 244.5 L 621 185.5 L 622.5 184 Z M 624 186 L 622 188 L 623 190 L 623 244 L 653 244 L 657 240 L 659 240 L 665 234 L 665 231 L 669 226 L 669 206 Q 665 204 665 199 L 657 190 Q 649 190 646 186 L 624 186 Z " /><path fill="rgb(231,232,234)" stroke="rgb(231,232,234)" stroke-width="1" opacity="1" d="M 1152.5 184 L 1172.5 184 L 1183 190.5 Q 1182.3 192.8 1184.5 192 L 1189.5 194 L 1193.5 191 L 1196 191 Q 1197.7 195.1 1193.5 194 Q 1192.5 197 1187.5 196 L 1172.5 186 L 1158.5 185 Q 1157.3 187.3 1152.5 186 L 1139 195.5 Q 1138.7 200.7 1135 202.5 Q 1136 209.5 1133 212.5 L 1133 219.5 L 1135 223.5 Q 1134.3 229.6 1136 232 Q 1138.7 230.9 1138 233.5 L 1143.5 240 L 1148.5 244 L 1164.5 247 Q 1168.8 243.8 1176.5 244 L 1183 238.5 Q 1182.3 236.3 1184.5 237 Q 1186 234.5 1191.5 236 L 1193 239 Q 1197.1 237.7 1196 241 L 1193.5 241 L 1187.5 237 L 1176.5 246 L 1166.5 249 L 1158.5 249 L 1145.5 244 L 1138 236.5 L 1134 231.5 Q 1134.7 224.3 1131 221.5 L 1131 210.5 Q 1134.3 207.3 1134 200.5 L 1143.5 189 L 1152.5 184 Z " /><path fill="rgb(231,232,234)" stroke="rgb(231,232,234)" stroke-width="1" opacity="1" d="M 907.5 200 L 911 202.5 L 912 207.5 L 917 217.5 L 920 220.5 L 920 223.5 L 918.5 225 L 897.5 225 Q 895.3 224.3 896 220.5 L 900 215.5 L 905 202.5 L 907.5 200 Z M 906 203 L 906 208 L 901 218 L 898 221 L 899 223 L 918 223 L 914 215 Q 915 212 912 213 L 910 205 L 906 203 Z " /><path fill="rgb(231,232,234)" stroke="rgb(231,232,234)" stroke-width="1" opacity="1" d="M 37 284 L 41 285.5 L 42 292.5 L 46 300.5 L 63.5 321 L 72.5 328 L 90 335 Q 91.6 339.9 86 338 L 84.5 335 L 80.5 335 Q 78.5 331 72.5 331 L 53 313.5 L 45 303.5 L 42.5 297 Q 40.3 297.8 41 295.5 L 40 290 L 37 290 L 37 284 Z " /><path fill="rgb(254,255,255)" stroke="rgb(254,255,255)" stroke-width="1" opacity="1" d="M 213 54 L 218.5 54 L 219 55.5 Q 218 58 213.5 57 L 209.5 61 L 205.5 61 L 188 75 L 185.5 79 L 183 80.5 L 174.5 90 L 172 91.5 Q 172.8 93.8 170.5 93 L 166.5 98 L 161 102.5 L 158.5 106 L 151 112.5 L 150 117.5 Q 150.5 120.5 154.5 120 L 159.5 119 L 159.5 120 L 155.5 120 Q 154 124.3 148 123 Q 147 114.6 149 110 L 151.5 110 L 163 99.5 Q 162.3 97.3 164.5 98 L 190.5 72 L 192 72 L 193.5 69 L 198 66.5 L 199.5 64 L 201.5 64 L 205.5 60 L 209.5 60 L 212 57.5 L 213 54 Z " /><path fill="rgb(254,255,255)" stroke="rgb(254,255,255)" stroke-width="1" opacity="1" d="M 272 54 L 279 54 L 279 56.5 L 281 59.5 L 277.5 57 Q 273 58 272 55.5 L 272 54 Z " /><path fill="rgb(254,255,255)" stroke="rgb(254,255,255)" stroke-width="1" opacity="1" d="M 282.5 60 Q 287 59 288 61.5 L 289.5 64 L 293 65.5 L 291.5 65 L 289.5 65 L 285.5 61 L 282.5 61 L 282.5 60 Z " /><path fill="rgb(254,255,255)" stroke="rgb(254,255,255)" stroke-width="1" opacity="1" d="M 293.5 67 L 296.5 68 L 306 77.5 L 305.5 79 L 297.5 70 Q 293.5 69.5 293.5 67 Z " /><path fill="rgb(254,255,255)" stroke="rgb(254,255,255)" stroke-width="1" opacity="1" d="M 306.5 80 L 310 81 L 311.5 85 L 315 87.5 Q 313.8 93.6 316.5 93 L 319 94 L 318.5 100 Q 318.5 94 314 92.5 L 313 87 L 310 85.5 L 309 82 L 306.5 80 Z " /><path fill="rgb(254,255,255)" stroke="rgb(254,255,255)" stroke-width="1" opacity="1" d="M 241.5 96 L 249.5 96 L 256 97.5 L 247.5 98 L 244.5 97 Q 242.7 99.8 236.5 98 L 236.5 97 L 241.5 96 Z " /><path fill="rgb(254,255,255)" stroke="rgb(254,255,255)" stroke-width="1" opacity="1" d="M 230.5 98 L 232 98.5 L 229 100.5 Q 229.8 102.8 227.5 102 L 223 104.5 L 221.5 107 L 219 106.5 L 230.5 98 Z " /><path fill="rgb(254,255,255)" stroke="rgb(254,255,255)" stroke-width="1" opacity="1" d="M 260.5 98 L 273 108.5 L 266.5 103 L 264.5 103 L 260.5 98 Z " /><path fill="rgb(254,255,255)" stroke="rgb(254,255,255)" stroke-width="1" opacity="1" d="M 319 102 L 323 104.5 L 322.5 110 L 322 106.5 L 319 102 Z " /><path fill="rgb(254,255,255)" stroke="rgb(254,255,255)" stroke-width="1" opacity="1" d="M 218.5 108 L 218 109.5 Q 218.8 111.8 216.5 111 L 214 115 L 210 117.5 Q 210.8 119.8 208.5 119 Q 205.3 120.2 206 124 L 198.5 127 Q 196.4 123.6 191 123.5 L 194.5 123 Q 195.9 125.6 200.5 125 L 205 123 L 205 121.5 L 218.5 108 Z " /><path fill="rgb(254,255,255)" stroke="rgb(254,255,255)" stroke-width="1" opacity="1" d="M 273.5 110 L 277 114.5 L 275.5 115 Q 271.8 113.8 273.5 110 Z " /><path fill="rgb(254,255,255)" stroke="rgb(254,255,255)" stroke-width="1" opacity="1" d="M 277.5 116 Q 276.6 123.4 280 126.5 L 280 132.5 Q 277.3 135.8 277.5 142 L 277 133.5 Q 279.8 132.8 279 128.5 L 277 126.5 L 277.5 116 Z " /><path fill="rgb(254,255,255)" stroke="rgb(254,255,255)" stroke-width="1" opacity="1" d="M 176.5 119 L 179 119.5 L 176.5 120 L 176.5 119 Z " /><path fill="rgb(254,255,255)" stroke="rgb(254,255,255)" stroke-width="1" opacity="1" d="M 180.5 120 L 189 122.5 L 183.5 123 L 180.5 120 Z " /><path fill="rgb(254,255,255)" stroke="rgb(254,255,255)" stroke-width="1" opacity="1" d="M 145.5 131 L 161 131.5 L 146.5 132 L 140.5 136 L 135.5 136 L 132.5 139 L 133 137.5 L 134.5 135 Q 143.3 136.3 145.5 131 Z " /><path fill="rgb(254,255,255)" stroke="rgb(254,255,255)" stroke-width="1" opacity="1" d="M 171.5 131 L 186.5 131 L 191.5 135 Q 197.5 133.5 199 136.5 Q 198.3 138.8 200.5 138 L 207 140 L 208.5 143 L 213 144 L 215.5 148 L 218 149.5 L 216.5 149 L 204.5 140 Q 197.8 140.7 196.5 136 Q 188 137 185.5 132 L 171.5 132 L 171.5 131 Z " /><path fill="rgb(254,255,255)" stroke="rgb(254,255,255)" stroke-width="1" opacity="1" d="M 126.5 139 L 131 139.5 L 127.5 140 L 120.5 145 L 104.5 160 L 103 160 L 103 161.5 L 86.5 178 L 82 181.5 L 53 211.5 L 48 220 L 45 221.5 Q 45.8 223.8 43.5 223 L 44 221.5 Q 42.8 217.8 46.5 219 L 55 207.5 L 84 178.5 L 84 177 L 85.5 177 L 114 149.5 Q 113.2 146.9 116.5 148 L 121.5 143 L 124 143 L 126.5 139 Z " /><path fill="rgb(254,255,255)" stroke="rgb(254,255,255)" stroke-width="1" opacity="1" d="M 275.5 144 L 277 144.5 L 273.5 150 L 273 146.5 L 275.5 144 Z " /><path fill="rgb(254,255,255)" stroke="rgb(254,255,255)" stroke-width="1" opacity="1" d="M 322.5 149 L 323 156 L 319 157 L 322 152.5 L 322.5 149 Z " /><path fill="rgb(254,255,255)" stroke="rgb(254,255,255)" stroke-width="1" opacity="1" d="M 218.5 151 L 222 152 L 223 154.5 L 220.5 153 L 218.5 151 Z " /><path fill="rgb(254,255,255)" stroke="rgb(254,255,255)" stroke-width="1" opacity="1" d="M 272.5 151 L 271.5 153 Q 269.3 152.3 270 154.5 L 266 157 L 263.5 161 Q 261.3 160.3 262 162.5 L 258 165 L 255.5 169 L 257 166.5 L 258.5 164 L 261 162.5 L 262.5 160 L 265 158.5 L 266.5 156 L 269 154.5 L 270.5 152 L 272.5 151 Z " /><path fill="rgb(254,255,255)" stroke="rgb(254,255,255)" stroke-width="1" opacity="1" d="M 223.5 156 Q 226.8 154.9 226 157.5 L 227 160 L 231 161.5 Q 229.9 164.8 232.5 164 L 234 165.5 L 235 174.5 L 232.5 178 Q 228.8 177.3 228 179.5 L 225.5 183 Q 223.3 182.3 224 184.5 L 220 187 L 217.5 191 Q 215.3 190.3 216 192.5 L 211 196.5 L 206.5 202 L 199.5 203 Q 196.5 201 197 195.5 L 189.5 186 L 187 184.5 L 185.5 182 Q 181.8 182.8 181 180.5 L 180 178.5 L 183.5 181 L 185.5 181 L 194 189.5 L 198 195.5 L 199 201 L 203.5 202 L 233 174.5 L 233 167.5 L 224.5 157 L 223.5 156 Z " /><path fill="rgb(254,255,255)" stroke="rgb(254,255,255)" stroke-width="1" opacity="1" d="M 318.5 159 L 319 165 L 315.5 166 L 318 162.5 L 318.5 159 Z " /><path fill="rgb(254,255,255)" stroke="rgb(254,255,255)" stroke-width="1" opacity="1" d="M 314.5 167 L 315 171.5 L 311 173 L 306 182.5 L 275 213.5 L 275 215 L 273.5 215 L 244.5 244 L 242.5 244 L 234 250.5 L 232.5 253 L 228 252.5 L 231.5 252 L 243.5 243 L 305 181.5 L 311.5 172 L 314 170.5 L 314.5 167 Z " /><path fill="rgb(254,255,255)" stroke="rgb(254,255,255)" stroke-width="1" opacity="1" d="M 359.5 168 L 389.5 168 L 393 169 L 394.5 172 L 397 172.5 L 394.5 173 L 389.5 169 L 360.5 169 L 353.5 173 L 353.5 172 L 359.5 168 Z " /><path fill="rgb(254,255,255)" stroke="rgb(254,255,255)" stroke-width="1" opacity="1" d="M 429.5 168 L 490.5 168 L 494 169 L 494 186 L 445.5 186 L 444 186.5 L 445.5 185 L 491.5 185 L 493 183.5 L 493 171.5 L 491.5 170 L 489.5 169 L 431.5 169 L 428 171.5 L 427.5 174 L 427 169 L 429.5 168 Z " /><path fill="rgb(254,255,255)" stroke="rgb(254,255,255)" stroke-width="1" opacity="1" d="M 500.5 168 L 570.5 168 L 573 169 L 572.5 173 L 569.5 169 L 501.5 169 L 499 170 L 498.5 173 L 498 169 L 500.5 168 Z " /><path fill="rgb(254,255,255)" stroke="rgb(254,255,255)" stroke-width="1" opacity="1" d="M 607.5 168 L 651 168.5 L 608.5 169 L 606 171.5 L 605.5 176 L 605 171.5 L 607.5 168 Z " /><path fill="rgb(254,255,255)" stroke="rgb(254,255,255)" stroke-width="1" opacity="1" d="M 687.5 168 L 702.5 168 L 706 170.5 L 707.5 173 Q 711.3 171.8 710 175.5 L 712.5 181 Q 714.8 180.3 714 182.5 L 710 179.5 L 710 176.5 L 705 170 L 702.5 169 L 689.5 169 Q 686.3 169.8 687 174.5 Q 688.7 181.8 694 185.5 L 692.5 186 Q 686.6 181 685 171.5 L 687.5 168 Z " /><path fill="rgb(254,255,255)" stroke="rgb(254,255,255)" stroke-width="1" opacity="1" d="M 754.5 168 L 767.5 168 L 769 169.5 L 768.5 171 L 766.5 169 L 754.5 169 L 750 172.5 L 738.5 191 L 736 192.5 L 735.5 196 L 735 192.5 L 736 190 L 740 187.5 L 743 183.5 L 744 177 L 748 175.5 L 752.5 169 L 754.5 168 Z " /><path fill="rgb(254,255,255)" stroke="rgb(254,255,255)" stroke-width="1" opacity="1" d="M 777 168 L 785 168.5 Q 779.2 167.7 777.5 171 L 777 168 Z " /><path fill="rgb(254,255,255)" stroke="rgb(254,255,255)" stroke-width="1" opacity="1" d="M 840.5 168 Q 850.1 166.9 855 169 L 856 171.5 L 856 263.5 L 854.5 265 L 845.5 265 L 842.5 261 Q 840.3 261.8 841 259.5 L 840.5 258 L 844 260 L 846.5 264 Q 851.9 264.6 854 263 L 855 260.5 L 855 174.5 L 853 170 Q 849.4 167.7 840.5 169 L 838 170 L 836 174.5 L 835.5 220 L 835 172.5 L 837.5 169 L 840.5 168 Z " /><path fill="rgb(254,255,255)" stroke="rgb(254,255,255)" stroke-width="1" opacity="1" d="M 904.5 168 Q 911.5 167.3 915 169 L 914.5 175 Q 914.7 170.3 911.5 169 Q 904.3 167.3 902.5 171 L 902 169 L 904.5 168 Z " /><path fill="rgb(254,255,255)" stroke="rgb(254,255,255)" stroke-width="1" opacity="1" d="M 969.5 168 Q 977.2 167.2 981 169 L 982 172.5 L 980 171.5 Q 980.8 169.3 978.5 170 Q 976.8 167.3 970.5 169 L 969 170.5 L 968.5 178 L 968 169.5 L 969.5 168 Z " /><path fill="rgb(254,255,255)" stroke="rgb(254,255,255)" stroke-width="1" opacity="1" d="M 1053.5 168 Q 1059.5 166.5 1061 169.5 L 1060.5 172 L 1058.5 169 Q 1052.5 170.2 1053.5 168 Z " /><path fill="rgb(254,255,255)" stroke="rgb(254,255,255)" stroke-width="1" opacity="1" d="M 1088.5 168 L 1100.5 168 L 1103 169 L 1106 174.5 L 1106 253.5 Q 1103.8 254.8 1105 259.5 L 1100.5 265 Q 1088.6 267.4 1085 261.5 L 1085.5 255 L 1087 262 Q 1090.3 265 1098.5 264 L 1102 261.5 L 1104 257.5 L 1104 175.5 L 1100.5 169 L 1089.5 169 L 1086 171.5 L 1085.5 177 L 1085 169 L 1088.5 168 Z " /><path fill="rgb(254,255,255)" stroke="rgb(254,255,255)" stroke-width="1" opacity="1" d="M 1147.5 168 L 1177.5 168 L 1184 172.5 L 1182.5 173 L 1177.5 169 L 1147.5 169 L 1141.5 173 L 1141.5 172 L 1147.5 168 Z " /><path fill="rgb(254,255,255)" stroke="rgb(254,255,255)" stroke-width="1" opacity="1" d="M 253.5 169 L 253 170.5 L 250.5 174 L 249 173.5 L 252 171.5 L 253.5 169 Z " /><path fill="rgb(254,255,255)" stroke="rgb(254,255,255)" stroke-width="1" opacity="1" d="M 652.5 169 L 655 169 Q 653.9 171.7 656.5 171 L 659 172.5 L 657.5 173 L 652.5 170 L 652.5 169 Z " /><path fill="rgb(254,255,255)" stroke="rgb(254,255,255)" stroke-width="1" opacity="1" d="M 786.5 169 L 789 170.5 L 803.5 189 L 806 190.5 L 805.5 192 L 786.5 169 Z " /><path fill="rgb(254,255,255)" stroke="rgb(254,255,255)" stroke-width="1" opacity="1" d="M 1049.5 169 L 1052 169.5 L 1049 171.5 L 1048.5 175 L 1048 170.5 L 1049.5 169 Z " /><path fill="rgb(254,255,255)" stroke="rgb(254,255,255)" stroke-width="1" opacity="1" d="M 349 173 L 352 173.5 L 337 186.5 L 334.5 191 L 332 192.5 L 331.5 197 L 331 190.5 L 336 187.5 L 344.5 177 Q 348.5 177.5 349 174.5 L 349 173 Z " /><path fill="rgb(254,255,255)" stroke="rgb(254,255,255)" stroke-width="1" opacity="1" d="M 398.5 173 Q 401.8 171.9 401 174.5 L 401.5 176 L 398.5 173 Z " /><path fill="rgb(254,255,255)" stroke="rgb(254,255,255)" stroke-width="1" opacity="1" d="M 663.5 173 Q 665.8 172.3 665 174.5 L 672 178.5 L 673.5 181 Q 676.8 179.9 676 182.5 L 677 185 L 681 187.5 L 680.5 190 L 674.5 182 L 666.5 177 L 663.5 173 Z " /><path fill="rgb(254,255,255)" stroke="rgb(254,255,255)" stroke-width="1" opacity="1" d="M 901.5 173 L 902 174.5 L 898.5 179 L 898 177.5 L 901.5 173 Z " /><path fill="rgb(254,255,255)" stroke="rgb(254,255,255)" stroke-width="1" opacity="1" d="M 1137.5 173 L 1139 173.5 L 1137 174 L 1135.5 177 L 1136 175.5 L 1137.5 173 Z " /><path fill="rgb(254,255,255)" stroke="rgb(254,255,255)" stroke-width="1" opacity="1" d="M 1187.5 173 L 1188.5 175 L 1187.5 173 Z " /><path fill="rgb(254,255,255)" stroke="rgb(254,255,255)" stroke-width="1" opacity="1" d="M 248.5 175 L 246.5 178 Q 244.3 177.3 245 179.5 L 241 182 L 238.5 186 Q 236.3 185.3 237 187.5 L 232.5 191 L 233.5 189 L 236 187.5 L 237.5 185 L 240 183.5 L 241.5 181 L 244 179.5 L 245.5 177 L 248.5 175 Z " /><path fill="rgb(254,255,255)" stroke="rgb(254,255,255)" stroke-width="1" opacity="1" d="M 1061.5 175 L 1062 177 Q 1065 175.8 1064 179.5 L 1065 180.5 L 1065 194.5 L 1064 194.5 L 1064 182.5 Q 1059.8 179.9 1061.5 175 Z " /><path fill="rgb(254,255,255)" stroke="rgb(254,255,255)" stroke-width="1" opacity="1" d="M 160.5 176 L 171.5 176 L 179 177.5 L 169.5 178 Q 168.2 175.8 163.5 177 L 162.5 178 L 152.5 178 L 141.5 186 L 141.5 185 L 152.5 177 Q 158.8 178.8 160.5 176 Z " /><path fill="rgb(254,255,255)" stroke="rgb(254,255,255)" stroke-width="1" opacity="1" d="M 915.5 176 L 919 177 L 918.5 183 L 918 179.5 L 915.5 176 Z " /><path fill="rgb(254,255,255)" stroke="rgb(254,255,255)" stroke-width="1" opacity="1" d="M 403.5 177 Q 407.3 176.3 408 178.5 Q 407.3 180.8 409.5 180 L 411 181.5 L 411 189.5 L 407.5 194 L 404.5 196 L 399.5 197 L 394 195 L 393 191 L 387 190 L 385 186.5 L 388.5 189 L 394 191.5 L 395.5 194 L 401.5 196 L 406 193.5 L 408 190.5 Q 411.3 189.3 410 183.5 L 405.5 178 Q 402.5 178.5 403.5 177 Z " /><path fill="rgb(254,255,255)" stroke="rgb(254,255,255)" stroke-width="1" opacity="1" d="M 982.5 177 Q 985.8 175.9 985 178.5 L 983.5 178 L 982.5 177 Z " /><path fill="rgb(254,255,255)" stroke="rgb(254,255,255)" stroke-width="1" opacity="1" d="M 1045.5 177 L 1048 177.5 L 1045 179.5 Q 1045.8 181.8 1043.5 181 L 1044 179.5 L 1045.5 177 Z " /><path fill="rgb(254,255,255)" stroke="rgb(254,255,255)" stroke-width="1" opacity="1" d="M 1132.5 177 L 1134 177.5 L 1127.5 183 L 1132.5 177 Z " /><path fill="rgb(254,255,255)" stroke="rgb(254,255,255)" stroke-width="1" opacity="1" d="M 1192.5 177 Q 1197.3 175.7 1196 179 Q 1191.8 179 1192.5 177 Z " /><path fill="rgb(254,255,255)" stroke="rgb(254,255,255)" stroke-width="1" opacity="1" d="M 768.5 178 L 769 182 L 764.5 183 L 765.5 181 L 768 179.5 L 768.5 178 Z " /><path fill="rgb(254,255,255)" stroke="rgb(254,255,255)" stroke-width="1" opacity="1" d="M 967.5 179 L 968 182.5 L 965 192.5 L 965 210.5 L 961 223.5 L 960.5 237 L 960 220.5 L 964 210.5 L 964 191.5 L 967.5 179 Z " /><path fill="rgb(254,255,255)" stroke="rgb(254,255,255)" stroke-width="1" opacity="1" d="M 985.5 180 L 990 188.5 L 989 188.5 L 985 181.5 L 985.5 180 Z " /><path fill="rgb(254,255,255)" stroke="rgb(254,255,255)" stroke-width="1" opacity="1" d="M 897.5 181 L 898 183.5 L 894 186.5 L 896 183.5 L 897.5 181 Z " /><path fill="rgb(254,255,255)" stroke="rgb(254,255,255)" stroke-width="1" opacity="1" d="M 1085.5 181 L 1086 252.5 L 1085 252.5 L 1085.5 181 Z " /><path fill="rgb(254,255,255)" stroke="rgb(254,255,255)" stroke-width="1" opacity="1" d="M 572.5 182 L 573 186 L 544.5 186 L 544 189.5 L 543 189.5 Q 542.3 185.8 544.5 185 L 570.5 185 L 572 183.5 L 572.5 182 Z " /><path fill="rgb(254,255,255)" stroke="rgb(254,255,255)" stroke-width="1" opacity="1" d="M 498.5 183 L 500.5 185 L 527 185.5 L 498 186 L 498.5 183 Z " /><path fill="rgb(254,255,255)" stroke="rgb(254,255,255)" stroke-width="1" opacity="1" d="M 1043.5 183 L 1044 184.5 L 1041 186 L 1039.5 191 L 1039 188.5 L 1040 185 Q 1043.8 186.3 1043.5 183 Z " /><path fill="rgb(254,255,255)" stroke="rgb(254,255,255)" stroke-width="1" opacity="1" d="M 714.5 184 L 718 186 L 719 192.5 L 720.5 194 L 723 195.5 L 722.5 197 L 722 195 L 718 192.5 L 718 189.5 L 714.5 184 Z " /><path fill="rgb(254,255,255)" stroke="rgb(254,255,255)" stroke-width="1" opacity="1" d="M 1126.5 184 L 1123.5 188 L 1123 186.5 L 1126.5 184 Z " /><path fill="rgb(254,255,255)" stroke="rgb(254,255,255)" stroke-width="1" opacity="1" d="M 365.5 185 L 384 185.5 L 365.5 186 L 365.5 185 Z " /><path fill="rgb(254,255,255)" stroke="rgb(254,255,255)" stroke-width="1" opacity="1" d="M 763.5 185 L 764 187.5 L 760 190.5 L 763.5 185 Z " /><path fill="rgb(254,255,255)" stroke="rgb(254,255,255)" stroke-width="1" opacity="1" d="M 919.5 185 L 923 186.5 L 922.5 190 L 920.5 186 L 919.5 185 Z " /><path fill="rgb(254,255,255)" stroke="rgb(254,255,255)" stroke-width="1" opacity="1" d="M 1158.5 185 L 1167 185.5 L 1158.5 186 L 1158.5 185 Z " /><path fill="rgb(254,255,255)" stroke="rgb(254,255,255)" stroke-width="1" opacity="1" d="M 645.5 186 Q 647.6 189.4 653 189.5 L 649.5 190 L 645.5 186 Z " /><path fill="rgb(254,255,255)" stroke="rgb(254,255,255)" stroke-width="1" opacity="1" d="M 139.5 187 L 139 188.5 Q 139.8 190.8 137.5 190 L 135 194 L 131 196.5 Q 131.8 198.8 129.5 198 L 125.5 203 L 122 205.5 Q 122.8 207.8 120.5 207 L 118 211 L 114 213.5 Q 114.8 215.8 112.5 215 L 110 219 L 106 221.5 Q 106.8 223.8 104.5 223 L 100.5 228 L 98 229.5 L 96.5 232 L 93 234.5 Q 93.8 236.8 91.5 236 L 83.5 248 L 81.5 249 L 81 247 L 84 245.5 L 85 241.5 L 139.5 187 Z " /><path fill="rgb(254,255,255)" stroke="rgb(254,255,255)" stroke-width="1" opacity="1" d="M 694.5 187 L 695 189 L 697 189.5 L 695.5 190 L 694.5 187 Z " /><path fill="rgb(254,255,255)" stroke="rgb(254,255,255)" stroke-width="1" opacity="1" d="M 362.5 188 L 361.5 190 L 358 189.5 L 362.5 188 Z " /><path fill="rgb(254,255,255)" stroke="rgb(254,255,255)" stroke-width="1" opacity="1" d="M 893.5 188 L 894 191.5 L 890 196.5 L 890 199.5 L 886 204.5 L 885.5 208 L 885 203.5 L 889 199.5 L 889 196.5 L 893 191.5 L 893.5 188 Z " /><path fill="rgb(254,255,255)" stroke="rgb(254,255,255)" stroke-width="1" opacity="1" d="M 1150.5 188 L 1149.5 190 L 1147 189.5 L 1150.5 188 Z " /><path fill="rgb(254,255,255)" stroke="rgb(254,255,255)" stroke-width="1" opacity="1" d="M 1174.5 188 L 1178 189.5 L 1175.5 190 L 1174.5 188 Z " /><path fill="rgb(254,255,255)" stroke="rgb(254,255,255)" stroke-width="1" opacity="1" d="M 154.5 189 Q 160 188 161 191.5 L 162 198 Q 164.7 196.9 164 199.5 L 172.5 210 Q 176.9 208.5 176 211.5 L 178.5 214 L 196.5 215 L 197.5 214 L 206.5 214 L 215 207.5 Q 214.2 204.9 217.5 206 L 217.5 207 L 206.5 215 L 186.5 216 Q 184.8 213.2 178.5 215 L 165 203.5 L 158.5 191 L 153.5 191 L 126 217.5 Q 124.6 226.9 129.5 230 Q 131.8 229.3 131 231.5 L 131.5 233 L 127 229.5 Q 127.8 227.3 125.5 228 Q 122.3 226.3 124 219.5 L 126.5 214 Q 130.3 214.8 131 212.5 L 132.5 210 L 135 208.5 L 136.5 206 L 140 203.5 Q 139.3 201.3 141.5 202 L 144 198 L 148 195.5 L 150.5 192 L 153.5 190 L 154.5 189 Z " /><path fill="rgb(254,255,255)" stroke="rgb(254,255,255)" stroke-width="1" opacity="1" d="M 1121.5 189 L 1123 189.5 L 1119 193.5 Q 1120 202 1115 204.5 L 1115 227.5 L 1116 230 Q 1119 229 1118 232 L 1114 229.5 L 1114 203.5 L 1118 198.5 Q 1117.3 192.4 1119 190 L 1121.5 189 Z " /><path fill="rgb(254,255,255)" stroke="rgb(254,255,255)" stroke-width="1" opacity="1" d="M 656.5 190 L 664.5 199 L 662 198 L 659.5 194 Q 657.3 194.8 658 192.5 L 656.5 190 Z " /><path fill="rgb(254,255,255)" stroke="rgb(254,255,255)" stroke-width="1" opacity="1" d="M 990.5 190 L 993 191.5 L 994 196.5 L 993 196.5 L 990.5 190 Z " /><path fill="rgb(254,255,255)" stroke="rgb(254,255,255)" stroke-width="1" opacity="1" d="M 445.5 191 L 446 201.5 L 444.5 204 L 444 202.5 L 445 201.5 L 445.5 191 Z " /><path fill="rgb(254,255,255)" stroke="rgb(254,255,255)" stroke-width="1" opacity="1" d="M 681.5 191 L 683.5 194 L 686 194.5 L 686 202.5 L 685 202.5 L 685 196.5 L 681 192.5 L 681.5 191 Z " /><path fill="rgb(254,255,255)" stroke="rgb(254,255,255)" stroke-width="1" opacity="1" d="M 231.5 192 L 225.5 199 Q 223.3 198.3 224 200.5 L 220.5 203 L 220.5 202 L 223 200.5 L 224.5 198 L 228 195.5 Q 227.3 193.3 229.5 194 L 231.5 192 Z " /><path fill="rgb(254,255,255)" stroke="rgb(254,255,255)" stroke-width="1" opacity="1" d="M 355.5 192 L 354.5 194 L 352.5 195 L 353.5 193 L 355.5 192 Z " /><path fill="rgb(254,255,255)" stroke="rgb(254,255,255)" stroke-width="1" opacity="1" d="M 759.5 192 L 760 194 L 758 193.5 L 759.5 192 Z " /><path fill="rgb(254,255,255)" stroke="rgb(254,255,255)" stroke-width="1" opacity="1" d="M 1038.5 192 L 1036 195.5 L 1031.5 205 L 1031 203.5 L 1031 201.5 L 1035 197.5 Q 1034.5 192.5 1038.5 192 Z " /><path fill="rgb(254,255,255)" stroke="rgb(254,255,255)" stroke-width="1" opacity="1" d="M 1143.5 192 L 1142.5 194 L 1143.5 192 Z " /><path fill="rgb(254,255,255)" stroke="rgb(254,255,255)" stroke-width="1" opacity="1" d="M 1181.5 192 L 1187.5 196 L 1191.5 196 L 1195.5 194 L 1195.5 195 L 1188.5 198 Q 1186.6 194.4 1182 195 L 1181.5 192 Z " /><path fill="rgb(254,255,255)" stroke="rgb(254,255,255)" stroke-width="1" opacity="1" d="M 807.5 193 L 809.5 196 L 807.5 193 Z " /><path fill="rgb(254,255,255)" stroke="rgb(254,255,255)" stroke-width="1" opacity="1" d="M 923.5 193 L 927 194 L 926.5 198 L 923.5 193 Z " /><path fill="rgb(254,255,255)" stroke="rgb(254,255,255)" stroke-width="1" opacity="1" d="M 698.5 194 L 700.5 197 L 702 197.5 L 699.5 198 Q 697 197 698.5 194 Z " /><path fill="rgb(254,255,255)" stroke="rgb(254,255,255)" stroke-width="1" opacity="1" d="M 1140.5 194 L 1140 195.5 L 1139.5 197 L 1139 195.5 L 1140.5 194 Z " /><path fill="rgb(254,255,255)" stroke="rgb(254,255,255)" stroke-width="1" opacity="1" d="M 351.5 196 L 352 199.5 L 348 202 L 348 200 Q 350.7 201.1 350 198.5 L 351.5 196 Z " /><path fill="rgb(254,255,255)" stroke="rgb(254,255,255)" stroke-width="1" opacity="1" d="M 734.5 197 L 732 200.5 L 731.5 202 L 731 199.5 L 734.5 197 Z " /><path fill="rgb(254,255,255)" stroke="rgb(254,255,255)" stroke-width="1" opacity="1" d="M 329.5 198 Q 331.8 197.3 331 199.5 Q 327.6 201.6 327.5 207 L 327 200.5 L 329.5 198 Z " /><path fill="rgb(254,255,255)" stroke="rgb(254,255,255)" stroke-width="1" opacity="1" d="M 723.5 198 L 727 204.5 L 726 204.5 L 723 199.5 L 723.5 198 Z " /><path fill="rgb(254,255,255)" stroke="rgb(254,255,255)" stroke-width="1" opacity="1" d="M 755.5 198 L 756 200.5 L 752.5 203 L 755 199.5 L 755.5 198 Z " /><path fill="rgb(254,255,255)" stroke="rgb(254,255,255)" stroke-width="1" opacity="1" d="M 812.5 198 L 813.5 200 L 812.5 198 Z " /><path fill="rgb(254,255,255)" stroke="rgb(254,255,255)" stroke-width="1" opacity="1" d="M 994.5 198 L 998 199.5 L 997.5 203 L 995.5 199 L 994.5 198 Z " /><path fill="rgb(254,255,255)" stroke="rgb(254,255,255)" stroke-width="1" opacity="1" d="M 1138.5 198 L 1139 200.5 L 1136 202 L 1136 209.5 Q 1133.2 212.2 1134 218.5 Q 1137.6 221.4 1136 229.5 L 1135 229.5 Q 1136 222.5 1133 219.5 L 1133 212.5 Q 1136 209.5 1135 202.5 L 1138.5 198 Z " /><path fill="rgb(254,255,255)" stroke="rgb(254,255,255)" stroke-width="1" opacity="1" d="M 702.5 199 L 706 204.5 L 703 202.5 L 702.5 199 Z " /><path fill="rgb(254,255,255)" stroke="rgb(254,255,255)" stroke-width="1" opacity="1" d="M 665.5 200 L 669 205.5 L 669 225.5 L 668 225.5 L 668 206.5 L 665 202.5 L 665.5 200 Z " /><path fill="rgb(254,255,255)" stroke="rgb(254,255,255)" stroke-width="1" opacity="1" d="M 814.5 201 L 818 203.5 L 816.5 203 L 814.5 201 Z " /><path fill="rgb(254,255,255)" stroke="rgb(254,255,255)" stroke-width="1" opacity="1" d="M 927.5 202 L 931 203.5 L 930.5 207 L 930 204 L 927.5 202 Z " /><path fill="rgb(254,255,255)" stroke="rgb(254,255,255)" stroke-width="1" opacity="1" d="M 908.5 203 L 911 206.5 L 912 213 Q 914.7 211.9 914 214.5 L 915 216.5 L 914 216.5 Q 914.8 214.3 912.5 215 L 910 211.5 Q 910.6 205 908.5 203 Z " /><path fill="rgb(254,255,255)" stroke="rgb(254,255,255)" stroke-width="1" opacity="1" d="M 347.5 204 L 348 209.5 Q 345.2 212.2 346 218.5 Q 348.8 220.2 348 225.5 L 347 225.5 L 345 220.5 L 345 211.5 Q 347.8 209.3 347.5 204 Z " /><path fill="rgb(254,255,255)" stroke="rgb(254,255,255)" stroke-width="1" opacity="1" d="M 686.5 204 L 689 208.5 L 689 222.5 L 686.5 227 L 686 225.5 Q 689 220.5 688 211.5 L 686.5 204 Z " /><path fill="rgb(254,255,255)" stroke="rgb(254,255,255)" stroke-width="1" opacity="1" d="M 751.5 204 L 752 205.5 L 749.5 207 L 751.5 204 Z " /><path fill="rgb(254,255,255)" stroke="rgb(254,255,255)" stroke-width="1" opacity="1" d="M 444.5 205 L 445.5 206 L 490 206 Q 492.9 209.9 492 218.5 L 489.5 224 L 486 223.5 L 490 220.5 L 491 213.5 L 490 209.5 L 487.5 207 L 445.5 207 L 444.5 205 Z " /><path fill="rgb(254,255,255)" stroke="rgb(254,255,255)" stroke-width="1" opacity="1" d="M 818.5 205 L 822 207.5 L 823.5 210 L 826 211.5 L 827 213.5 L 821 208.5 Q 821.8 206.3 819.5 207 L 818.5 205 Z " /><path fill="rgb(254,255,255)" stroke="rgb(254,255,255)" stroke-width="1" opacity="1" d="M 998.5 205 L 1002 207.5 L 1001.5 209 L 998.5 205 Z " /><path fill="rgb(254,255,255)" stroke="rgb(254,255,255)" stroke-width="1" opacity="1" d="M 706.5 206 L 708.5 210 L 711 211.5 L 709.5 211 Q 706.2 212.1 707 209.5 L 706.5 206 Z " /><path fill="rgb(254,255,255)" stroke="rgb(254,255,255)" stroke-width="1" opacity="1" d="M 794.5 206 L 803 215.5 L 801.5 215 L 799 213.5 L 796 208 Q 792.8 209 794.5 206 Z " /><path fill="rgb(254,255,255)" stroke="rgb(254,255,255)" stroke-width="1" opacity="1" d="M 1028.5 206 L 1031 206.5 Q 1027.4 207.9 1027.5 213 L 1027 207.5 L 1028.5 206 Z " /><path fill="rgb(254,255,255)" stroke="rgb(254,255,255)" stroke-width="1" opacity="1" d="M 1065.5 206 L 1069 215.5 L 1069 222.5 L 1068 222.5 L 1065.5 206 Z " /><path fill="rgb(254,255,255)" stroke="rgb(254,255,255)" stroke-width="1" opacity="1" d="M 905.5 208 L 906 211 Q 903.3 209.9 904 212.5 L 902.5 215 L 902 213.5 L 905.5 208 Z " /><path fill="rgb(254,255,255)" stroke="rgb(254,255,255)" stroke-width="1" opacity="1" d="M 379.5 209 L 407.5 209 Q 408.8 211.3 413.5 210 L 415 211.5 L 415 247.5 L 413.5 248 L 409.5 253 Q 405.1 251.5 406 254.5 Q 403.9 258.1 399 258 L 397.5 261 Q 390.1 260.1 388.5 265 L 375.5 265 L 375.5 264 L 387.5 264 L 405 254.5 L 406.5 252 Q 410.5 252.5 411 249.5 L 414 245.5 L 414 214.5 L 411.5 211 L 407.5 210 L 379.5 210 L 379.5 209 Z " /><path fill="rgb(254,255,255)" stroke="rgb(254,255,255)" stroke-width="1" opacity="1" d="M 931.5 209 L 935 211 L 934.5 215 L 931 210.5 L 931.5 209 Z " /><path fill="rgb(254,255,255)" stroke="rgb(254,255,255)" stroke-width="1" opacity="1" d="M 371 210 L 376 210.5 L 372 212 Q 370.3 214.4 371 220.5 L 375.5 227 L 394.5 227 L 396 228.5 L 395.5 230 L 395 228 L 373.5 228 L 372 226.5 L 371 223 L 369 222.5 L 369 215.5 L 371 210 Z " /><path fill="rgb(254,255,255)" stroke="rgb(254,255,255)" stroke-width="1" opacity="1" d="M 747.5 210 L 748 213.5 L 744.5 215 L 744.5 214 L 747 212.5 L 747.5 210 Z " /><path fill="rgb(254,255,255)" stroke="rgb(254,255,255)" stroke-width="1" opacity="1" d="M 882.5 210 L 885 210.5 L 882 212.5 L 881.5 215 L 881 211.5 L 882.5 210 Z " /><path fill="rgb(254,255,255)" stroke="rgb(254,255,255)" stroke-width="1" opacity="1" d="M 1002.5 211 L 1006 216.5 L 1005 216.5 L 1002 212.5 L 1002.5 211 Z " /><path fill="rgb(254,255,255)" stroke="rgb(254,255,255)" stroke-width="1" opacity="1" d="M 981.5 212 L 984.5 216 L 982.5 215 L 981 215.5 L 981.5 212 Z " /><path fill="rgb(254,255,255)" stroke="rgb(254,255,255)" stroke-width="1" opacity="1" d="M 1047.5 212 L 1048 217.5 L 1046 217.5 Q 1046.8 219.8 1044.5 219 L 1045 217.5 L 1047.5 212 Z " /><path fill="rgb(254,255,255)" stroke="rgb(254,255,255)" stroke-width="1" opacity="1" d="M 711.5 214 L 715 219.5 L 711 216.5 L 711.5 214 Z " /><path fill="rgb(254,255,255)" stroke="rgb(254,255,255)" stroke-width="1" opacity="1" d="M 1024.5 214 L 1027 214.5 L 1024 216.5 L 1023.5 218 L 1023 215.5 L 1024.5 214 Z " /><path fill="rgb(254,255,255)" stroke="rgb(254,255,255)" stroke-width="1" opacity="1" d="M 827.5 215 L 830 216.5 L 834.5 222 L 836 221.5 Q 837.1 224.8 834.5 224 L 827.5 215 Z " /><path fill="rgb(254,255,255)" stroke="rgb(254,255,255)" stroke-width="1" opacity="1" d="M 901.5 216 L 902 217.5 L 900 218.5 L 901.5 216 Z " /><path fill="rgb(254,255,255)" stroke="rgb(254,255,255)" stroke-width="1" opacity="1" d="M 803.5 217 L 807 219.5 L 805.5 219 L 803.5 217 Z " /><path fill="rgb(254,255,255)" stroke="rgb(254,255,255)" stroke-width="1" opacity="1" d="M 880.5 217 L 881 218.5 L 877.5 224 L 877 219 Q 880.8 220.3 880.5 217 Z " /><path fill="rgb(254,255,255)" stroke="rgb(254,255,255)" stroke-width="1" opacity="1" d="M 935.5 217 Q 939.6 219.9 940 226.5 L 944 230.5 L 944 233.5 L 943 233.5 L 935 218.5 L 935.5 217 Z " /><path fill="rgb(254,255,255)" stroke="rgb(254,255,255)" stroke-width="1" opacity="1" d="M 742.5 218 L 743 219.5 L 740 221.5 L 742.5 218 Z " /><path fill="rgb(254,255,255)" stroke="rgb(254,255,255)" stroke-width="1" opacity="1" d="M 915.5 218 L 918 223 L 916 222.5 Q 918.5 221 915 219.5 L 915.5 218 Z " /><path fill="rgb(254,255,255)" stroke="rgb(254,255,255)" stroke-width="1" opacity="1" d="M 985.5 218 Q 985.9 223.1 990 224.5 L 990 228.5 L 992.5 231 L 994 231.5 L 991.5 232 L 987.5 223 Q 985.3 223.8 986 221.5 L 985.5 218 Z " /><path fill="rgb(254,255,255)" stroke="rgb(254,255,255)" stroke-width="1" opacity="1" d="M 1006.5 218 L 1010 220 L 1009.5 224 L 1006 219.5 L 1006.5 218 Z " /><path fill="rgb(254,255,255)" stroke="rgb(254,255,255)" stroke-width="1" opacity="1" d="M 981.5 220 L 982 232.5 L 978.5 240 L 978 237.5 Q 982.4 231.4 981.5 220 Z " /><path fill="rgb(254,255,255)" stroke="rgb(254,255,255)" stroke-width="1" opacity="1" d="M 715.5 221 L 718.5 225 L 715 223 L 715.5 221 Z " /><path fill="rgb(254,255,255)" stroke="rgb(254,255,255)" stroke-width="1" opacity="1" d="M 807.5 221 L 811 223.5 L 809.5 224 L 807 223 L 807.5 221 Z " /><path fill="rgb(254,255,255)" stroke="rgb(254,255,255)" stroke-width="1" opacity="1" d="M 1022.5 221 L 1019.5 225 L 1019 223 L 1022.5 221 Z " /><path fill="rgb(254,255,255)" stroke="rgb(254,255,255)" stroke-width="1" opacity="1" d="M 1042.5 222 L 1043 223.5 Q 1039.3 226.6 1039 232 L 1036.5 233 L 1039 229.5 L 1042.5 222 Z " /><path fill="rgb(254,255,255)" stroke="rgb(254,255,255)" stroke-width="1" opacity="1" d="M 739.5 223 L 740 224.5 L 739 225.5 L 739 259.5 L 733.5 265 Q 723.2 266.4 719 263 L 718 259.5 L 718 227.5 L 719 227.5 L 719 259.5 L 721.5 262 Q 724.8 265.2 732.5 264 L 738 256.5 L 738 225.5 L 739.5 223 Z " /><path fill="rgb(254,255,255)" stroke="rgb(254,255,255)" stroke-width="1" opacity="1" d="M 327.5 224 L 328 228.5 L 331 233.5 L 330 233.5 Q 330.8 231.3 328.5 232 Q 325.1 230.1 327.5 224 Z " /><path fill="rgb(254,255,255)" stroke="rgb(254,255,255)" stroke-width="1" opacity="1" d="M 445.5 224 L 445 225.5 L 444.5 229 L 444 225.5 L 445.5 224 Z " /><path fill="rgb(254,255,255)" stroke="rgb(254,255,255)" stroke-width="1" opacity="1" d="M 452.5 224 L 483 224.5 L 452.5 225 L 452.5 224 Z " /><path fill="rgb(254,255,255)" stroke="rgb(254,255,255)" stroke-width="1" opacity="1" d="M 43.5 225 L 44 226.5 Q 38.8 228.2 40 235 L 37 235 L 37 228 L 43 227 L 43.5 225 Z " /><path fill="rgb(254,255,255)" stroke="rgb(254,255,255)" stroke-width="1" opacity="1" d="M 811.5 225 L 813.5 228 L 811 226.5 L 811.5 225 Z " /><path fill="rgb(254,255,255)" stroke="rgb(254,255,255)" stroke-width="1" opacity="1" d="M 1048.5 225 L 1051 233.5 L 1050 233.5 Q 1046.6 231 1048.5 225 Z " /><path fill="rgb(254,255,255)" stroke="rgb(254,255,255)" stroke-width="1" opacity="1" d="M 876.5 226 L 874 229.5 L 873.5 231 L 873 227 L 876.5 226 Z " /><path fill="rgb(254,255,255)" stroke="rgb(254,255,255)" stroke-width="1" opacity="1" d="M 1010.5 226 L 1014 227 L 1015.5 231 L 1018.5 226 L 1019 227.5 L 1016 234 Q 1012.7 235.3 1014 230.5 L 1010.5 226 Z " /><path fill="rgb(254,255,255)" stroke="rgb(254,255,255)" stroke-width="1" opacity="1" d="M 665 227 L 668 227.5 L 664 230.5 L 665 227 Z " /><path fill="rgb(254,255,255)" stroke="rgb(254,255,255)" stroke-width="1" opacity="1" d="M 685.5 229 L 686 234.5 L 681.5 241 L 681 239.5 Q 686 237 685.5 229 Z " /><path fill="rgb(254,255,255)" stroke="rgb(254,255,255)" stroke-width="1" opacity="1" d="M 815.5 229 L 816 231 L 820 233.5 Q 819.3 235.8 821.5 235 L 822.5 237 L 819 234.5 L 817.5 232 L 815 230.5 L 815.5 229 Z " /><path fill="rgb(254,255,255)" stroke="rgb(254,255,255)" stroke-width="1" opacity="1" d="M 445.5 230 L 446 238.5 L 445 238.5 L 445.5 230 Z " /><path fill="rgb(254,255,255)" stroke="rgb(254,255,255)" stroke-width="1" opacity="1" d="M 348.5 231 Q 351.8 229.9 351 232.5 L 356.5 239 L 359 240.5 L 360.5 243 L 363 243.5 L 360.5 244 L 355 240 L 353.5 237 Q 351.3 237.8 352 235.5 L 349.5 232 L 348.5 231 Z " /><path fill="rgb(254,255,255)" stroke="rgb(254,255,255)" stroke-width="1" opacity="1" d="M 394.5 231 L 395 239.5 L 390.5 244 L 387.5 244 L 387.5 243 Q 391.9 244.5 391 241.5 L 394 240 L 393 232.5 L 394.5 231 Z " /><path fill="rgb(254,255,255)" stroke="rgb(254,255,255)" stroke-width="1" opacity="1" d="M 1136.5 231 L 1139 232.5 L 1143 239 L 1147 241.5 L 1144.5 240 L 1142 238.5 L 1138 232 L 1136.5 231 Z " /><path fill="rgb(254,255,255)" stroke="rgb(254,255,255)" stroke-width="1" opacity="1" d="M 1118.5 233 L 1119 237.5 L 1123 242.5 L 1122 242.5 L 1120.5 240 Q 1118.3 240.8 1119 238.5 Q 1116.7 237.1 1118.5 233 Z " /><path fill="rgb(254,255,255)" stroke="rgb(254,255,255)" stroke-width="1" opacity="1" d="M 132.5 234 L 136 236.5 L 134.5 236 Q 130.5 237 132.5 234 Z " /><path fill="rgb(254,255,255)" stroke="rgb(254,255,255)" stroke-width="1" opacity="1" d="M 872.5 234 L 873 235.5 L 869.5 240 L 869 236.5 L 872.5 234 Z " /><path fill="rgb(254,255,255)" stroke="rgb(254,255,255)" stroke-width="1" opacity="1" d="M 994.5 234 L 998 239.5 L 995.5 240 Q 992.6 238.6 994.5 234 Z " /><path fill="rgb(254,255,255)" stroke="rgb(254,255,255)" stroke-width="1" opacity="1" d="M 1035.5 234 L 1036 236.5 L 1035 240 Q 1031.3 238.5 1032 241.5 L 1031 241.5 L 1032.5 239 Q 1034.8 239.8 1034 237.5 L 1035.5 234 Z " /><path fill="rgb(254,255,255)" stroke="rgb(254,255,255)" stroke-width="1" opacity="1" d="M 662.5 235 L 661.5 237 L 662.5 235 Z " /><path fill="rgb(254,255,255)" stroke="rgb(254,255,255)" stroke-width="1" opacity="1" d="M 1051.5 235 L 1052 238.5 L 1051 238.5 L 1051.5 235 Z " /><path fill="rgb(254,255,255)" stroke="rgb(254,255,255)" stroke-width="1" opacity="1" d="M 1184.5 235 Q 1191.3 233.3 1193 236.5 L 1191.5 236 Q 1185.4 235.3 1183 237 L 1181.5 240 L 1178.5 242 L 1180.5 239 Q 1182.8 239.8 1182 237.5 L 1184.5 235 Z " /><path fill="rgb(254,255,255)" stroke="rgb(254,255,255)" stroke-width="1" opacity="1" d="M 331.5 236 L 341 251 L 347.5 256 L 362.5 264 L 374 264.5 L 361.5 265 L 358.5 262 L 353.5 261 L 349.5 257 Q 345.8 257.8 345 255.5 L 343.5 253 L 340 250.5 L 338.5 248 Q 335.2 249.1 336 246.5 L 332.5 240 Q 329 240.8 331.5 236 Z " /><path fill="rgb(254,255,255)" stroke="rgb(254,255,255)" stroke-width="1" opacity="1" d="M 944.5 236 L 948 242.5 L 947 242.5 L 944 237.5 L 944.5 236 Z " /><path fill="rgb(254,255,255)" stroke="rgb(254,255,255)" stroke-width="1" opacity="1" d="M 1069.5 237 L 1073 245.5 L 1073 261.5 Q 1069.4 267.4 1057.5 265 L 1052 260.5 L 1052.5 255 Q 1052.6 261.4 1057.5 263 L 1066.5 264 L 1072 259.5 L 1072 248.5 L 1069 240.5 L 1069.5 237 Z " /><path fill="rgb(254,255,255)" stroke="rgb(254,255,255)" stroke-width="1" opacity="1" d="M 136.5 238 L 141 241.5 Q 140.3 243.8 142.5 243 L 152.5 251 Q 158.8 251.7 161.5 256 L 166 256.5 L 160.5 257 L 159 254 L 151 252 L 149.5 249 L 145 248 L 142.5 244 L 140 242.5 L 138.5 240 L 136.5 238 Z " /><path fill="rgb(254,255,255)" stroke="rgb(254,255,255)" stroke-width="1" opacity="1" d="M 823.5 238 L 840 256.5 L 838.5 257 L 823.5 238 Z " /><path fill="rgb(254,255,255)" stroke="rgb(254,255,255)" stroke-width="1" opacity="1" d="M 1193.5 238 L 1196 238.5 L 1193.5 239 L 1193.5 238 Z " /><path fill="rgb(254,255,255)" stroke="rgb(254,255,255)" stroke-width="1" opacity="1" d="M 656.5 239 L 659 239.5 Q 653.9 239.9 652.5 244 L 647.5 244 L 647.5 243 Q 652.8 244.3 654 241.5 Q 653.3 239.3 655.5 240 L 656.5 239 Z " /><path fill="rgb(254,255,255)" stroke="rgb(254,255,255)" stroke-width="1" opacity="1" d="M 444.5 240 L 445 244 L 493.5 244 L 494 244.5 L 494 251.5 L 493 251.5 Q 494 247 491.5 246 L 489.5 245 L 445.5 245 L 444 243.5 L 444.5 240 Z " /><path fill="rgb(254,255,255)" stroke="rgb(254,255,255)" stroke-width="1" opacity="1" d="M 890.5 241 L 895.5 242 L 919.5 242 Q 920.8 239.8 925.5 241 L 926.5 243 L 923.5 242 L 922.5 243 L 894.5 243 L 890 242 L 885.5 251 L 885 248.5 L 890.5 241 Z " /><path fill="rgb(254,255,255)" stroke="rgb(254,255,255)" stroke-width="1" opacity="1" d="M 977.5 241 L 978 257.5 L 977 257.5 L 977.5 241 Z " /><path fill="rgb(254,255,255)" stroke="rgb(254,255,255)" stroke-width="1" opacity="1" d="M 680.5 242 L 681 244 L 677 246.5 L 675.5 249 Q 673.3 248.3 674 250.5 L 670.5 253 L 670.5 252 L 673 250.5 L 680.5 242 Z " /><path fill="rgb(254,255,255)" stroke="rgb(254,255,255)" stroke-width="1" opacity="1" d="M 868.5 243 L 866 246.5 Q 866.8 248.8 864.5 248 L 865 246.5 Q 863.8 242.8 867.5 244 L 868.5 243 Z " /><path fill="rgb(254,255,255)" stroke="rgb(254,255,255)" stroke-width="1" opacity="1" d="M 1148.5 243 L 1151 243.5 L 1148.5 244 L 1148.5 243 Z " /><path fill="rgb(254,255,255)" stroke="rgb(254,255,255)" stroke-width="1" opacity="1" d="M 1174.5 243 L 1177 243.5 L 1174.5 244 L 1174.5 243 Z " /><path fill="rgb(254,255,255)" stroke="rgb(254,255,255)" stroke-width="1" opacity="1" d="M 364.5 244 L 369.5 244 L 375.5 246 Q 378.8 243.3 385.5 244 L 385.5 245 L 378.5 247 L 371.5 247 L 364.5 245 L 364.5 244 Z " /><path fill="rgb(254,255,255)" stroke="rgb(254,255,255)" stroke-width="1" opacity="1" d="M 927.5 244 L 931 248.5 L 929.5 248 Q 927.3 248.8 928 246.5 L 927.5 244 Z " /><path fill="rgb(254,255,255)" stroke="rgb(254,255,255)" stroke-width="1" opacity="1" d="M 948.5 244 L 952 250.5 L 951 250.5 L 948 245.5 L 948.5 244 Z " /><path fill="rgb(254,255,255)" stroke="rgb(254,255,255)" stroke-width="1" opacity="1" d="M 999.5 244 L 1002 247.5 L 1000 246.5 L 999.5 244 Z " /><path fill="rgb(254,255,255)" stroke="rgb(254,255,255)" stroke-width="1" opacity="1" d="M 1030.5 244 L 1031 246.5 L 1027.5 249 L 1027 247 L 1030 245.5 L 1030.5 244 Z " /><path fill="rgb(254,255,255)" stroke="rgb(254,255,255)" stroke-width="1" opacity="1" d="M 1123.5 244 L 1126 247.5 L 1124.5 248 Q 1122 247 1123.5 244 Z " /><path fill="rgb(254,255,255)" stroke="rgb(254,255,255)" stroke-width="1" opacity="1" d="M 1153.5 244 L 1164.5 246 Q 1166.2 243.2 1171.5 244 L 1171.5 245 L 1160.5 247 L 1153.5 245 L 1153.5 244 Z " /><path fill="rgb(254,255,255)" stroke="rgb(254,255,255)" stroke-width="1" opacity="1" d="M 959.5 247 L 960 249.5 Q 957 252.5 958 259.5 Q 960.4 265.6 970.5 264 L 976.5 259 L 977 262 L 971.5 265 L 961.5 265 L 959 264 L 956 258.5 L 956 254.5 L 959.5 247 Z " /><path fill="rgb(254,255,255)" stroke="rgb(254,255,255)" stroke-width="1" opacity="1" d="M 1002.5 249 L 1006 253.5 L 1004.5 253 L 1002 251.5 L 1002.5 249 Z " /><path fill="rgb(254,255,255)" stroke="rgb(254,255,255)" stroke-width="1" opacity="1" d="M 1127.5 249 L 1130.5 253 L 1128 251.5 L 1127.5 249 Z " /><path fill="rgb(254,255,255)" stroke="rgb(254,255,255)" stroke-width="1" opacity="1" d="M 864.5 250 L 865 251.5 Q 860.8 252.8 862 259.5 L 864.5 263 Q 867.7 265.3 874.5 264 L 880 260.5 L 880.5 259 L 881 261.5 L 875.5 265 L 862.5 265 L 861 263.5 L 861 252 Q 864.8 253.3 864.5 250 Z " /><path fill="rgb(254,255,255)" stroke="rgb(254,255,255)" stroke-width="1" opacity="1" d="M 1026.5 250 L 1027 252.5 L 1023 255.5 L 1026.5 250 Z " /><path fill="rgb(254,255,255)" stroke="rgb(254,255,255)" stroke-width="1" opacity="1" d="M 81.5 252 L 82 255.5 Q 79.4 258.4 80 264.5 Q 82.7 266.8 82 272.5 L 81 272.5 Q 78.1 267.9 79 259.5 L 81.5 252 Z " /><path fill="rgb(254,255,255)" stroke="rgb(254,255,255)" stroke-width="1" opacity="1" d="M 884 252 Q 886.7 250.9 886 253.5 L 885 256 L 881.5 258 L 881 256.5 L 884 252 Z " /><path fill="rgb(254,255,255)" stroke="rgb(254,255,255)" stroke-width="1" opacity="1" d="M 931.5 252 L 933.5 256 L 935 256.5 L 932.5 257 Q 929.8 255.8 931.5 252 Z " /><path fill="rgb(254,255,255)" stroke="rgb(254,255,255)" stroke-width="1" opacity="1" d="M 226.5 253 L 226 254.5 L 224.5 257 Q 218.4 256.3 216 258 L 214.5 261 L 201 260.5 L 212.5 260 L 218.5 256 L 223.5 256 L 226.5 253 Z " /><path fill="rgb(254,255,255)" stroke="rgb(254,255,255)" stroke-width="1" opacity="1" d="M 668.5 254 L 666.5 257 L 664 256.5 L 668.5 254 Z " /><path fill="rgb(254,255,255)" stroke="rgb(254,255,255)" stroke-width="1" opacity="1" d="M 1132.5 254 L 1137 256.5 L 1134.5 257 L 1132.5 254 Z " /><path fill="rgb(254,255,255)" stroke="rgb(254,255,255)" stroke-width="1" opacity="1" d="M 1192.5 254 L 1190.5 257 L 1188 256.5 L 1192.5 254 Z " /><path fill="rgb(254,255,255)" stroke="rgb(254,255,255)" stroke-width="1" opacity="1" d="M 1006.5 256 L 1007 258.5 L 1012.5 264 L 1017.5 264 L 1022 259.5 L 1022.5 258 L 1023 259.5 L 1018.5 265 Q 1011.8 266.8 1010 263.5 L 1008.5 261 L 1006 259.5 L 1006.5 256 Z " /><path fill="rgb(254,255,255)" stroke="rgb(254,255,255)" stroke-width="1" opacity="1" d="M 167.5 257 L 172.5 260 L 185 260.5 L 171.5 261 L 167.5 257 Z " /><path fill="rgb(254,255,255)" stroke="rgb(254,255,255)" stroke-width="1" opacity="1" d="M 493.5 257 L 494 264 L 491.5 265 L 430.5 265 L 427 262.5 L 427.5 258 L 429.5 262 L 434.5 264 L 486.5 264 L 490.5 263 L 493 260.5 L 493.5 257 Z " /><path fill="rgb(254,255,255)" stroke="rgb(254,255,255)" stroke-width="1" opacity="1" d="M 543.5 257 L 544 263.5 L 542.5 265 L 528.5 265 Q 526 264 527 259.5 L 528 259.5 L 530.5 263 L 537.5 264 L 543 260.5 L 543.5 257 Z " /><path fill="rgb(254,255,255)" stroke="rgb(254,255,255)" stroke-width="1" opacity="1" d="M 605.5 257 Q 605.3 261.7 608.5 263 L 610.5 264 L 646.5 264 L 651.5 261 L 650.5 263 L 647.5 265 L 607.5 265 Q 603.8 262.3 605.5 257 Z " /><path fill="rgb(254,255,255)" stroke="rgb(254,255,255)" stroke-width="1" opacity="1" d="M 662.5 257 L 659.5 261 L 656 260.5 Q 661.1 260.6 662.5 257 Z " /><path fill="rgb(254,255,255)" stroke="rgb(254,255,255)" stroke-width="1" opacity="1" d="M 953.5 257 L 954 263.5 L 952.5 265 L 939.5 265 L 935 261.5 L 935.5 258 L 938.5 263 L 949.5 264 L 953.5 257 Z " /><path fill="rgb(254,255,255)" stroke="rgb(254,255,255)" stroke-width="1" opacity="1" d="M 1138.5 257 L 1144 260.5 L 1141.5 261 L 1138.5 257 Z " /><path fill="rgb(254,255,255)" stroke="rgb(254,255,255)" stroke-width="1" opacity="1" d="M 1186.5 257 L 1185 259.5 Q 1185.9 262.5 1181.5 261 L 1181.5 260 Q 1186 260.5 1186.5 257 Z " /><path fill="rgb(254,255,255)" stroke="rgb(254,255,255)" stroke-width="1" opacity="1" d="M 793.5 259 L 794 264 L 791.5 265 L 778.5 265 Q 776.3 264.3 777 260.5 L 778 260.5 L 779.5 263 L 788.5 264 L 793 261.5 L 793.5 259 Z " /><path fill="rgb(254,255,255)" stroke="rgb(254,255,255)" stroke-width="1" opacity="1" d="M 188.5 261 L 198 261.5 L 188.5 262 L 188.5 261 Z " /><path fill="rgb(254,255,255)" stroke="rgb(254,255,255)" stroke-width="1" opacity="1" d="M 1147.5 262 L 1153 264.5 L 1149.5 265 L 1147.5 262 Z " /><path fill="rgb(254,255,255)" stroke="rgb(254,255,255)" stroke-width="1" opacity="1" d="M 1177.5 262 L 1175.5 265 L 1171 264.5 L 1177.5 262 Z " /><path fill="rgb(254,255,255)" stroke="rgb(254,255,255)" stroke-width="1" opacity="1" d="M 159.5 266 L 168 268.5 L 163.5 269 L 157 267.5 L 159.5 266 Z " /><path fill="rgb(254,255,255)" stroke="rgb(254,255,255)" stroke-width="1" opacity="1" d="M 154.5 268 L 156 268.5 L 153.5 270 L 154.5 268 Z " /><path fill="rgb(254,255,255)" stroke="rgb(254,255,255)" stroke-width="1" opacity="1" d="M 169.5 269 Q 175.8 267.8 177 271.5 L 175.5 272 Q 174.1 269.4 169.5 270 L 169.5 269 Z " /><path fill="rgb(254,255,255)" stroke="rgb(254,255,255)" stroke-width="1" opacity="1" d="M 207.5 269 Q 210.8 267.9 210 270.5 L 211 275.5 L 208.5 282 Q 205.2 280.9 206 283.5 L 196 292.5 Q 196.8 294.8 194.5 294 L 165.5 323 L 161 325.5 Q 161.8 327.8 159.5 327 L 155 329.5 L 153.5 332 L 150 331.5 L 163.5 323 L 197 290.5 L 201.5 285 L 208 279.5 Q 211.3 269.8 201.5 273 L 201.5 272 Q 206.7 272.7 207.5 269 Z " /><path fill="rgb(254,255,255)" stroke="rgb(254,255,255)" stroke-width="1" opacity="1" d="M 178.5 272 L 181 272.5 L 178.5 273 L 178.5 272 Z " /><path fill="rgb(254,255,255)" stroke="rgb(254,255,255)" stroke-width="1" opacity="1" d="M 148.5 275 L 146.5 278 Q 144.3 277.3 145 279.5 L 136.5 287 L 137.5 285 L 140 283.5 L 141.5 281 L 144 279.5 L 145.5 277 L 148.5 275 Z " /><path fill="rgb(254,255,255)" stroke="rgb(254,255,255)" stroke-width="1" opacity="1" d="M 81.5 276 L 85 278.5 L 87.5 285 L 90 286.5 L 91.5 289 L 96 290 L 97.5 293 L 100 293.5 L 97.5 294 L 85 283.5 L 84 279 L 81 277.5 L 81.5 276 Z " /><path fill="rgb(254,255,255)" stroke="rgb(254,255,255)" stroke-width="1" opacity="1" d="M 135.5 288 L 134.5 290 L 126.5 294 L 126.5 293 Q 129.8 294.1 129 291.5 L 135.5 288 Z " /><path fill="rgb(254,255,255)" stroke="rgb(254,255,255)" stroke-width="1" opacity="1" d="M 37 290 Q 41.9 288.2 40 294.5 L 41 297 L 44 298.5 L 43.5 300 Q 42 296.7 37 298 L 37 290 Z " /><path fill="rgb(254,255,255)" stroke="rgb(254,255,255)" stroke-width="1" opacity="1" d="M 103.5 294 L 114.5 296 Q 116.5 293 122.5 294 L 122.5 295 Q 117.2 294.2 115.5 297 L 109.5 297 Q 108.1 294.4 103.5 295 L 103.5 294 Z " /><path fill="rgb(254,255,255)" stroke="rgb(254,255,255)" stroke-width="1" opacity="1" d="M 44.5 302 L 48 306.5 L 45.5 307 L 43 303.5 L 44.5 302 Z " /><path fill="rgb(254,255,255)" stroke="rgb(254,255,255)" stroke-width="1" opacity="1" d="M 48.5 308 L 62.5 323 L 72.5 331 L 75.5 331 L 80.5 335 Q 85 334 86 336.5 L 85.5 338 L 79 338 L 78 333 L 71.5 332 L 70 330.5 L 68.5 328 L 65 326.5 L 63.5 324 Q 57.4 322.6 55 317.5 L 53 314.5 L 50.5 311 L 48 309.5 L 48.5 308 Z " /><path fill="rgb(254,255,255)" stroke="rgb(254,255,255)" stroke-width="1" opacity="1" d="M 148.5 332 L 147 334.5 L 146 338 L 140 338 L 140 336 L 145.5 335 L 148.5 332 Z " /><path fill="rgb(255,255,255)" stroke="rgb(255,255,255)" stroke-width="1" opacity="1" d="M 0 0 L 1250 0 L 1250 417 L 0 417 L 0 0 Z M 213 54 L 212 58 L 210 60 L 206 60 L 202 64 L 200 64 L 198 67 L 194 69 L 192 72 L 191 72 L 165 98 Q 162 97 163 100 L 152 110 L 149 110 Q 147 115 148 123 L 153 123 L 156 120 L 161 119 L 176 119 L 184 123 L 195 124 L 199 127 L 205 124 Q 207 125 206 122 L 210 119 L 213 115 Q 215 116 214 114 L 218 111 L 219 109 Q 218 106 222 107 L 223 105 L 228 102 Q 230 103 229 101 L 233 98 L 244 98 L 245 97 Q 250 100 260 98 L 265 103 L 267 103 L 273 110 L 273 113 L 277 115 L 277 127 L 279 129 Q 280 133 277 134 L 277 144 L 276 144 Q 272 145 273 151 L 271 152 L 269 155 L 267 156 L 265 159 L 263 160 L 261 163 L 259 164 L 257 167 L 254 169 L 251 173 Q 248 172 249 175 L 246 177 L 244 180 L 242 181 L 240 184 L 238 185 L 236 188 L 234 189 L 230 194 Q 227 193 228 196 L 225 198 L 223 201 L 220 202 L 219 205 L 219 206 L 215 206 L 215 208 L 207 214 L 198 214 L 197 215 L 179 214 L 176 212 Q 177 208 173 210 L 164 200 Q 165 197 162 198 L 161 192 L 159 189 L 154 190 L 151 192 L 148 196 L 144 198 L 142 202 Q 139 201 140 204 L 137 206 L 135 209 L 133 210 L 131 213 Q 130 215 127 214 L 124 220 Q 122 226 126 228 Q 128 227 127 230 L 132 234 Q 131 237 135 236 L 136 239 L 139 240 L 140 243 L 143 244 L 145 248 L 150 249 L 151 252 L 158 254 Q 160 253 159 256 Q 161 259 167 257 L 172 261 L 188 261 L 189 262 L 215 261 L 216 258 Q 218 256 225 257 L 226 255 Q 227 252 233 253 L 234 251 L 243 244 L 245 244 L 274 215 L 275 215 L 275 214 L 306 183 L 311 175 Q 310 172 314 173 L 317 165 L 319 165 L 319 157 L 323 156 L 323 105 L 321 102 L 319 102 L 319 94 L 317 93 Q 314 94 315 88 L 310 84 Q 311 80 308 81 L 306 78 L 297 68 L 295 68 L 293 66 L 290 64 L 288 62 Q 287 59 282 60 L 279 57 L 279 54 L 213 54 Z M 146 131 Q 143 136 135 135 L 133 138 Q 132 140 127 139 L 124 143 L 122 143 L 117 148 Q 113 147 114 150 L 86 177 L 84 177 L 84 179 L 55 208 L 47 219 Q 43 218 44 222 L 44 224 L 43 227 L 40 228 L 37 229 L 37 298 Q 43 297 44 301 L 43 304 L 46 307 Q 49 306 48 310 L 51 311 L 53 315 L 55 318 Q 57 323 64 324 L 65 327 L 69 328 L 70 331 L 72 332 L 78 333 L 79 336 L 80 338 L 146 338 L 147 335 Q 148 331 154 332 L 155 330 L 160 327 Q 162 328 161 326 L 166 323 L 195 294 Q 197 295 196 293 L 206 284 Q 205 281 209 282 L 211 276 L 210 269 L 201 273 L 182 273 L 178 272 L 175 269 L 164 268 L 161 266 L 155 268 L 152 272 Q 153 275 149 273 L 149 275 L 146 277 L 144 280 L 142 281 L 140 284 L 138 285 L 136 288 L 131 290 L 129 293 Q 125 295 118 294 L 115 296 L 98 293 L 96 290 L 92 289 L 90 287 L 88 285 L 85 279 L 81 276 L 82 273 Q 83 267 80 265 Q 79 258 82 256 L 81 250 L 84 248 L 92 236 Q 94 237 93 235 L 97 232 L 98 230 L 101 228 L 105 223 Q 107 224 106 222 L 110 219 L 113 215 Q 115 216 114 214 L 118 211 L 121 207 Q 123 208 122 206 L 126 203 L 127 201 L 131 198 L 134 194 Q 136 195 135 193 L 139 190 L 140 186 L 143 186 L 153 178 L 163 178 L 164 177 L 180 178 L 181 181 Q 182 183 186 182 L 187 185 L 190 186 L 197 196 Q 196 201 200 203 L 207 202 L 211 197 L 216 193 Q 215 190 218 191 L 220 187 L 224 185 Q 223 182 226 183 L 228 180 Q 229 177 233 178 L 235 175 L 234 166 L 233 164 Q 230 165 231 162 L 227 160 L 226 158 Q 227 154 223 156 L 222 154 Q 223 151 220 152 L 218 150 L 216 148 L 213 144 L 209 143 L 207 140 L 201 138 Q 198 139 199 137 Q 197 133 192 135 L 187 131 L 146 131 Z M 360 168 L 353 173 Q 348 171 349 175 Q 349 178 345 177 L 336 188 L 331 191 L 331 198 L 330 198 L 327 201 L 327 231 L 330 232 L 331 235 Q 330 241 333 240 L 336 247 Q 335 249 339 248 L 340 251 L 344 253 L 345 256 Q 346 258 350 257 L 354 261 L 359 262 L 362 265 L 389 265 Q 390 260 398 261 L 399 258 Q 404 258 406 255 Q 405 251 410 253 L 414 248 L 415 248 L 415 212 L 414 210 Q 409 211 408 209 L 380 209 L 379 210 L 371 210 L 369 216 L 369 223 L 371 223 L 372 227 L 374 228 L 395 228 Q 396 231 393 233 L 394 235 Q 395 241 393 240 L 391 243 L 381 244 L 376 246 L 361 243 L 359 241 L 357 239 L 351 233 Q 352 229 348 231 L 348 222 L 346 219 Q 345 212 348 210 L 348 203 L 350 202 Q 353 201 352 196 L 355 194 L 356 192 Q 357 189 362 190 L 363 188 L 365 186 L 385 186 L 387 190 L 393 191 L 394 195 L 400 197 L 405 196 L 408 194 L 411 190 L 411 182 L 410 180 Q 407 181 408 179 Q 407 176 402 177 L 401 173 L 395 172 L 393 169 L 390 168 L 360 168 Z M 430 168 L 429 169 L 427 170 L 427 263 L 431 265 L 492 265 L 494 264 L 494 244 L 445 244 L 446 239 L 446 231 L 445 230 Q 444 225 447 224 Q 451 223 453 225 L 483 225 Q 484 223 490 224 L 492 219 Q 493 210 490 206 L 446 206 L 444 205 L 446 202 Q 447 193 445 189 Q 443 187 446 186 L 494 186 L 494 169 L 491 168 L 430 168 Z M 501 168 L 498 169 L 498 186 L 527 186 L 527 264 L 529 265 L 543 265 L 544 264 L 544 187 L 545 186 L 573 186 L 573 169 L 571 168 L 501 168 Z M 608 168 L 605 172 L 605 261 L 608 265 L 648 265 L 653 261 L 660 261 L 664 257 L 667 257 L 669 253 Q 673 254 674 251 Q 673 248 676 249 L 677 247 L 681 244 Q 680 239 685 238 L 686 228 L 689 223 L 689 209 L 686 204 L 686 195 L 684 194 Q 680 193 681 188 L 677 185 L 676 183 Q 677 180 674 181 L 672 179 L 667 176 L 665 173 Q 659 174 657 171 Q 654 172 655 169 L 651 168 L 608 168 Z M 688 168 L 685 172 Q 687 181 693 186 Q 695 185 694 189 L 697 190 L 698 197 L 702 198 L 707 210 Q 706 212 710 211 Q 712 212 711 217 Q 716 218 715 223 L 719 226 L 718 228 L 718 260 L 719 263 Q 723 266 734 265 L 739 260 L 739 226 L 744 217 Q 743 214 747 215 L 749 209 Q 748 206 751 207 L 752 204 L 755 202 Q 757 201 756 196 L 760 194 Q 759 189 764 188 L 764 184 Q 765 181 769 182 L 769 170 L 768 168 L 755 168 L 753 169 L 748 176 L 744 177 L 743 184 L 740 188 L 736 190 L 735 197 L 733 198 L 730 205 L 727 206 L 723 196 L 721 194 L 719 193 L 718 186 L 714 184 Q 715 180 713 181 L 710 176 Q 711 172 708 173 L 706 171 L 703 168 L 688 168 Z M 777 168 L 777 264 L 779 265 L 792 265 L 793 264 L 794 264 L 794 209 L 796 208 L 799 214 L 802 215 L 803 218 L 806 219 L 807 223 L 811 224 L 813 228 Q 816 227 815 231 L 818 232 L 819 235 L 822 236 L 837 256 L 840 257 L 841 260 Q 840 262 843 261 L 846 265 L 855 265 L 856 264 L 856 172 L 855 169 L 852 168 Q 843 167 838 169 L 835 173 L 835 220 Q 837 221 835 222 L 830 217 L 827 215 L 826 212 L 824 210 L 822 208 L 820 206 L 818 204 L 816 202 L 814 200 L 812 198 L 808 193 Q 805 194 806 191 L 804 189 L 789 171 Q 785 167 777 168 Z M 905 168 L 902 169 L 902 173 L 899 176 L 896 184 Q 897 186 894 185 L 893 192 Q 888 193 889 200 L 885 204 L 885 210 L 883 210 L 881 212 Q 882 216 880 218 Q 881 220 877 219 L 877 226 L 876 227 L 873 227 L 873 234 L 871 235 Q 867 237 869 243 L 868 244 Q 864 243 865 247 L 865 249 L 864 251 Q 865 253 861 252 L 861 264 L 863 265 L 876 265 L 880 263 Q 882 262 881 259 L 885 256 L 886 254 L 885 252 L 890 242 L 895 243 L 923 243 L 926 242 L 928 247 Q 927 249 930 248 Q 933 249 931 256 L 933 257 Q 937 256 935 262 L 940 265 L 953 265 L 954 264 L 952 249 L 949 246 Q 949 238 944 236 L 944 231 L 940 227 Q 940 219 935 217 Q 936 210 934 211 L 931 209 Q 932 203 930 202 L 927 202 L 927 194 L 925 194 Q 921 193 923 187 L 922 185 L 919 185 L 919 177 L 917 177 L 915 176 L 915 169 Q 912 167 905 168 Z M 970 168 L 968 170 L 968 179 L 964 192 L 964 211 L 960 221 L 960 247 L 956 255 L 956 259 L 959 264 L 962 265 L 972 265 L 977 262 Q 979 254 978 241 L 982 233 L 981 217 L 984 215 L 986 222 Q 985 224 988 223 L 992 232 L 994 232 L 994 239 L 998 240 Q 997 246 1002 249 L 1002 252 L 1005 253 Q 1007 254 1006 260 L 1009 261 L 1010 264 Q 1012 267 1019 265 Q 1023 263 1023 257 L 1027 253 L 1027 250 L 1030 248 L 1032 242 Q 1031 238 1035 240 L 1036 234 L 1039 232 L 1044 221 Q 1043 218 1046 219 L 1047 217 L 1048 219 L 1048 231 L 1051 235 L 1052 240 L 1052 261 L 1058 265 Q 1069 267 1073 262 L 1073 246 L 1069 237 L 1069 216 L 1065 206 L 1065 181 L 1064 180 Q 1065 176 1062 177 Q 1060 175 1061 170 L 1060 168 Q 1052 167 1048 171 L 1048 177 L 1046 177 L 1044 180 L 1044 182 L 1043 184 Q 1044 186 1040 185 L 1039 192 L 1035 196 L 1035 198 L 1031 202 L 1032 203 L 1031 206 L 1027 208 L 1027 214 L 1025 214 Q 1022 215 1023 221 L 1019 223 Q 1020 228 1016 231 L 1014 227 L 1010 226 Q 1011 219 1009 220 L 1002 211 L 1002 208 L 1000 206 Q 997 205 998 200 L 994 198 L 993 192 L 990 190 L 990 188 L 985 180 Q 986 175 982 177 L 981 175 L 982 173 L 981 169 Q 977 167 970 168 Z M 1089 168 L 1088 169 L 1085 170 L 1085 262 Q 1089 267 1101 265 L 1105 260 Q 1104 255 1106 254 L 1106 175 L 1103 169 L 1101 168 L 1089 168 Z M 1148 168 L 1141 173 L 1138 173 L 1136 176 L 1133 177 L 1127 184 L 1125 185 L 1123 189 L 1119 190 Q 1117 192 1118 199 L 1114 204 L 1114 230 L 1118 232 L 1119 239 Q 1118 241 1121 240 Q 1124 241 1123 247 L 1127 248 L 1130 253 Q 1133 252 1132 255 Q 1133 258 1138 257 L 1142 261 L 1147 262 L 1150 265 L 1176 265 L 1181 261 Q 1186 263 1185 260 L 1193 255 Q 1192 251 1196 253 L 1196 239 L 1193 238 L 1192 235 Q 1184 233 1182 238 Q 1183 240 1181 239 L 1178 243 L 1168 244 L 1165 246 L 1151 243 Q 1146 244 1147 242 L 1143 239 L 1139 233 L 1136 231 L 1136 222 L 1134 219 Q 1133 212 1136 210 L 1136 203 L 1138 202 L 1140 196 L 1143 194 L 1144 192 Q 1145 189 1150 190 L 1151 187 L 1154 186 L 1172 186 L 1173 187 Q 1175 186 1174 189 L 1181 191 L 1182 195 Q 1187 194 1189 198 L 1196 195 L 1196 178 Q 1196 176 1191 177 L 1189 175 L 1183 172 L 1178 168 L 1148 168 Z " /><path fill="rgb(255,255,255)" stroke="rgb(255,255,255)" stroke-width="1" opacity="1" d="M 623 186 L 644.5 186 L 649.5 190 Q 656.5 188.5 658 192.5 Q 657.3 194.8 659.5 194 L 662 198 L 665 199.5 L 665 202.5 L 668 206.5 L 668 227 Q 663.9 225.3 665 229.5 L 665 231.5 L 664 235 L 661 236.5 L 659.5 239 L 654 240 L 652.5 243 Q 647.7 241.7 646.5 244 L 623 244 L 623 186 Z " /><path fill="rgb(255,255,255)" stroke="rgb(255,255,255)" stroke-width="1" opacity="1" d="M 907.5 203 L 910 206.5 Q 909 213 912.5 215 Q 914.8 214.3 914 216.5 L 917 221.5 L 915.5 223 L 898 223 L 899.5 219 L 902 217.5 L 904 211 Q 907.5 212.1 906 204.5 L 907.5 203 Z " /><path fill="rgb(125,137,156)" stroke="rgb(125,137,156)" stroke-width="1" opacity="1" d="M 224 54 L 266.5 54 L 267 57 L 268.5 57 Q 270.8 59.7 276.5 59 L 279.5 62 L 292 68 Q 290.9 70.7 293.5 70 L 301 76.5 L 312 90.5 L 320 109.5 L 320 143.5 L 321 144.5 L 317 158.5 L 308 174.5 L 242.5 241 L 229.5 250 L 221.5 254 L 216.5 254 L 210.5 258 L 187.5 259 L 186.5 258 L 175.5 258 Q 171 254.5 163.5 254 L 147.5 245 L 137 235.5 L 129 225.5 L 129 218.5 L 133 216 L 133 214.5 L 152.5 195 L 156.5 194 L 163 204.5 L 171.5 213 L 173.5 213 L 178.5 217 L 192.5 220 L 207.5 217 L 218.5 209 L 274 153.5 L 279 146.5 L 279 143.5 L 283 134.5 L 283 124.5 L 280 119.5 L 278 111.5 L 267.5 100 L 258.5 95 Q 252.8 95.7 250.5 93 L 241.5 93 L 237.5 95 L 229.5 96 L 222.5 101 L 201.5 122 L 196.5 122 L 180.5 117 L 159.5 116 L 155.5 117 L 154 113.5 L 200.5 68 L 207.5 63 L 212.5 62 L 215.5 59 Q 221.7 59.7 224 56.5 L 224 54 Z " /><path fill="rgb(125,137,156)" stroke="rgb(125,137,156)" stroke-width="1" opacity="1" d="M 164.5 133 L 182.5 134 Q 186.5 138 194.5 138 L 210.5 147 L 225 160.5 L 230 167.5 L 230 173.5 L 206.5 197 L 202.5 199 L 200 193.5 L 186.5 179 Q 177.8 172.2 161.5 173 Q 158.6 175.6 152.5 175 L 143.5 180 L 84 239.5 L 79 247.5 Q 79 254.5 76 258.5 L 76 266.5 L 80 279.5 L 89.5 291 L 96.5 296 Q 104.8 296.2 109.5 300 L 115.5 300 Q 120.9 296.4 129.5 296 L 135.5 292 L 156.5 271 L 165.5 271 Q 173.4 275.6 185.5 276 L 188.5 275 L 189.5 276 L 198.5 276 L 202.5 275 L 205 276 L 205 278.5 L 162.5 321 L 151.5 329 L 143.5 333 L 137.5 334 L 135 336.5 L 135.5 338 L 90.5 338 L 90 335 L 88.5 335 L 72.5 328 L 55 312.5 L 46 300.5 L 39.5 284 L 37 283.5 L 37 241 L 39.5 242 Q 42.6 239.1 42 232.5 L 45 229.5 L 51 217.5 L 113.5 154 L 121 149 Q 119.9 146.3 122.5 147 L 137.5 138 L 141.5 138 L 149.5 134 L 163.5 134 L 164.5 133 Z " /><path fill="rgb(125,137,156)" stroke="rgb(125,137,156)" stroke-width="1" opacity="1" d="M 695.5 170 L 702.5 171 L 704 172.5 L 727.5 209 L 732 205.5 L 746 181.5 L 754.5 171 L 759.5 170 Q 760.8 172.3 765.5 171 L 767 172.5 L 767 177.5 L 755 193.5 L 735 226.5 L 735 257.5 L 734 260 L 728.5 262 L 724.5 261 L 721 257.5 L 721 226.5 L 720 222.5 Q 713.2 217.1 711 208 Q 708.3 209.1 709 206.5 L 692 180.5 Q 689.3 178.2 690 172.5 L 695.5 170 Z " /><path fill="rgb(125,137,156)" stroke="rgb(125,137,156)" stroke-width="1" opacity="1" d="M 845.5 170 Q 850.3 170.3 852 173.5 L 853 176.5 L 853 257.5 L 849.5 262 L 847.5 262 L 842 256.5 L 814.5 225 Q 812.3 225.8 813 223.5 L 794.5 203 L 792 204.5 L 792 257.5 L 789.5 261 Q 781 263 779 258.5 L 779 172.5 L 780.5 171 L 784.5 171 L 789 175.5 L 806 196 L 809 197.5 L 835.5 228 L 839 228 L 839 220.5 L 838 219.5 L 838 176.5 L 841.5 171 L 845.5 170 Z " /><path fill="rgb(125,137,156)" stroke="rgb(125,137,156)" stroke-width="1" opacity="1" d="M 1095.5 170 L 1100 171 L 1102 176.5 L 1102 255.5 L 1098.5 261 L 1094.5 262 L 1088 258.5 L 1087 256.5 L 1087 175.5 L 1090.5 171 L 1095.5 170 Z " /><path fill="rgb(125,137,156)" stroke="rgb(125,137,156)" stroke-width="1" opacity="1" d="M 1152.5 170 L 1172.5 170 L 1177.5 171 L 1180.5 174 L 1185.5 175 L 1193.5 181 L 1196 181 L 1196 190.5 L 1193.5 191 L 1188.5 194 L 1183 192 L 1181.5 189 L 1172.5 184 L 1152.5 184 L 1143.5 189 L 1138 194.5 L 1134 200.5 Q 1134.3 207.3 1131 210.5 L 1131 221.5 Q 1134.7 224.3 1134 231.5 L 1145.5 244 L 1158.5 249 L 1166.5 249 L 1178.5 245 Q 1181.2 238.8 1188.5 237 L 1193.5 241 L 1196 241 L 1196 249.5 L 1194.5 250 Q 1185.5 257.5 1173.5 262 Q 1166.4 264.4 1155.5 263 L 1146.5 260 L 1135.5 254 L 1125 243.5 L 1117 225.5 L 1116 213.5 Q 1118.8 211.7 1117 205.5 L 1119 203.5 L 1121 194.5 L 1134.5 179 L 1139.5 175 L 1152.5 170 Z " /><path fill="rgb(125,137,156)" stroke="rgb(125,137,156)" stroke-width="1" opacity="1" d="M 363.5 171 L 378.5 172 L 379.5 171 L 387.5 171 L 393.5 175 L 398.5 176 L 407 183.5 L 408 187.5 L 400.5 193 L 383.5 183 L 365.5 183 Q 355.2 187.2 349 195.5 L 343 208.5 L 342 218.5 L 347 233.5 L 353.5 241 L 359.5 246 L 367.5 249 Q 373.8 247.2 375.5 250 L 391.5 246 L 398 239.5 Q 396.5 232 399 228.5 L 398 226 L 395.5 225 L 378.5 225 L 375 222.5 L 374 217.5 L 376.5 213 L 379.5 212 L 400.5 212 Q 402.2 214.8 408.5 213 L 411 215.5 L 411 244.5 L 408 250 L 394.5 258 L 383.5 262 L 366.5 262 L 347.5 253 L 339 244.5 L 333 234.5 Q 333.7 227.7 330 225.5 L 330 206.5 Q 334 202.5 334 194.5 L 347.5 179 L 363.5 171 Z " /><path fill="rgb(125,137,156)" stroke="rgb(125,137,156)" stroke-width="1" opacity="1" d="M 434.5 171 L 486.5 171 L 491 174.5 Q 492.8 181.3 489.5 183 L 445.5 183 L 442 185.5 L 442 206.5 L 444.5 209 L 485.5 209 L 488 211.5 Q 488.9 218.3 487 221 L 446.5 221 L 443 222 L 442 224.5 L 442 244.5 L 443 247 Q 447.9 249.1 457.5 248 Q 459 245.5 464.5 247 L 465.5 248 L 473.5 248 L 474.5 247 L 484.5 247 L 488.5 248 L 491 250.5 Q 492.7 258.2 488.5 260 L 481.5 261 L 479.5 261 L 446.5 261 L 444.5 260 L 442.5 261 L 440.5 260 L 435.5 261 L 430 257.5 L 430 173.5 L 431.5 172 L 434.5 171 Z " /><path fill="rgb(125,137,156)" stroke="rgb(125,137,156)" stroke-width="1" opacity="1" d="M 504.5 171 L 566.5 171 L 570 173.5 L 571 179.5 L 568.5 183 L 543.5 183 L 541 185.5 L 541 258.5 L 539.5 260 L 535.5 261 L 530 258.5 L 529 245.5 L 530 244.5 L 530 186.5 L 527.5 183 L 502.5 183 L 500 180.5 Q 499.3 174.3 502.5 172 L 504.5 171 Z " /><path fill="rgb(125,137,156)" stroke="rgb(125,137,156)" stroke-width="1" opacity="1" d="M 609.5 171 L 649.5 171 Q 654 174.5 661.5 175 L 670 180 L 671.5 183 L 675 185.5 L 684 200.5 L 685 224.5 Q 681.5 242 669.5 251 L 656.5 259 Q 650.2 258.2 647.5 261 L 610.5 261 L 607 256.5 L 607 175.5 L 609.5 171 Z M 623 184 L 621 186 L 621 245 L 624 247 L 652 246 L 661 241 L 666 236 L 670 228 Q 669 223 671 222 L 670 204 L 665 196 L 657 188 Q 650 189 649 185 L 645 184 L 623 184 Z " /><path fill="rgb(125,137,156)" stroke="rgb(125,137,156)" stroke-width="1" opacity="1" d="M 905.5 171 Q 910.8 169.8 912 172.5 L 921 190.5 L 921 193.5 L 929 207.5 L 930 212.5 L 942 234.5 L 942 237.5 L 951 253.5 L 951 258.5 Q 949.3 261.8 944.5 262 L 938 260 L 933 251.5 L 932 246.5 L 926.5 239 L 890.5 239 L 888 240 L 880 256.5 L 875.5 261 L 869.5 262 L 865 258.5 L 866 251.5 L 874 237.5 L 874 234.5 L 891 201.5 L 891 198.5 L 895 193.5 L 895 190.5 L 905.5 171 Z M 908 200 L 905 203 L 900 216 L 896 221 Q 895 224 898 225 L 919 225 L 920 224 L 920 221 L 917 218 L 912 208 L 911 203 L 908 200 Z " /><path fill="rgb(125,137,156)" stroke="rgb(125,137,156)" stroke-width="1" opacity="1" d="M 971 171 Q 977.3 169.5 979 173.5 L 980 177.5 L 983 180.5 L 988 191.5 L 1014.5 237 L 1023 224.5 L 1036 201.5 L 1037 197.5 L 1049 178.5 L 1050 174.5 L 1053.5 171 Q 1058 170 1059 172.5 L 1059 176.5 L 1062 185.5 L 1063 208.5 L 1067 224.5 L 1067 238.5 L 1070 251.5 L 1070 257.5 Q 1067.9 261.9 1061.5 262 L 1056 258.5 L 1054 252.5 L 1053 230.5 L 1050 222.5 L 1050 210.5 L 1048.5 209 L 1046 210.5 L 1038 227.5 L 1035 230.5 L 1022 253.5 L 1021 257.5 L 1016.5 262 L 1013.5 262 L 1009 257.5 L 1007 251.5 L 1004 248.5 L 1003 244.5 L 981.5 208 L 980 208.5 L 980 217.5 L 979 218.5 L 978 232.5 L 976 236.5 L 975 257.5 L 972.5 260 L 966.5 262 L 960 257.5 L 962 249.5 L 963 226.5 L 966 214.5 L 966 200.5 L 969 189.5 L 970 173.5 L 971 171 Z " /></svg>